<mxfile host="app.diagrams.net" agent="Mozilla/5.0 (Macintosh; Intel Mac OS X 10_15_7) AppleWebKit/605.1.15 (KHTML, like Gecko) Version/17.5 Safari/605.1.15" version="24.7.16">
  <diagram name="Page-1" id="faFGbYDfc-yJfE558ecA">
    <mxGraphModel dx="1363" dy="787" grid="1" gridSize="10" guides="1" tooltips="1" connect="1" arrows="1" fold="1" page="1" pageScale="1" pageWidth="827" pageHeight="1169" math="0" shadow="0">
      <root>
        <mxCell id="0" />
        <mxCell id="1" parent="0" />
        <mxCell id="nnLEG21wNNKofwJg_tyF-10" style="edgeStyle=orthogonalEdgeStyle;rounded=0;orthogonalLoop=1;jettySize=auto;html=1;targetPerimeterSpacing=0;sourcePerimeterSpacing=0;" parent="1" source="kooUzmV5k-GNHN8CiD2J-41" target="kooUzmV5k-GNHN8CiD2J-45" edge="1">
          <mxGeometry relative="1" as="geometry" />
        </mxCell>
        <mxCell id="kooUzmV5k-GNHN8CiD2J-41" value="&lt;span style=&quot;background-color: initial;&quot;&gt;Real Data&lt;/span&gt;&lt;div&gt;&lt;span style=&quot;background-color: initial;&quot;&gt;Annotated&lt;/span&gt;&lt;/div&gt;" style="shape=cylinder3;whiteSpace=wrap;html=1;boundedLbl=1;backgroundOutline=1;size=15;fillColor=#dae8fc;strokeColor=#6c8ebf;" parent="1" vertex="1">
          <mxGeometry x="260" y="740" width="80" height="80" as="geometry" />
        </mxCell>
        <mxCell id="kooUzmV5k-GNHN8CiD2J-42" style="edgeStyle=orthogonalEdgeStyle;rounded=0;orthogonalLoop=1;jettySize=auto;html=1;targetPerimeterSpacing=0;sourcePerimeterSpacing=0;" parent="1" target="kooUzmV5k-GNHN8CiD2J-44" edge="1" source="Mvh4aQKfTHbiU97Dxfyn-2">
          <mxGeometry relative="1" as="geometry">
            <mxPoint x="370" y="899.9999999999998" as="sourcePoint" />
            <Array as="points">
              <mxPoint x="390" y="900" />
              <mxPoint x="390" y="900" />
            </Array>
          </mxGeometry>
        </mxCell>
        <mxCell id="nnLEG21wNNKofwJg_tyF-7" style="edgeStyle=orthogonalEdgeStyle;rounded=0;orthogonalLoop=1;jettySize=auto;html=1;targetPerimeterSpacing=0;sourcePerimeterSpacing=0;" parent="1" source="kooUzmV5k-GNHN8CiD2J-44" target="nnLEG21wNNKofwJg_tyF-4" edge="1">
          <mxGeometry relative="1" as="geometry">
            <Array as="points">
              <mxPoint x="600" y="900" />
              <mxPoint x="600" y="780" />
            </Array>
          </mxGeometry>
        </mxCell>
        <mxCell id="kooUzmV5k-GNHN8CiD2J-44" value="nlp-synt-data&lt;div&gt;(Prompt Generator)&lt;/div&gt;" style="whiteSpace=wrap;html=1;" parent="1" vertex="1">
          <mxGeometry x="440" y="870" width="120" height="60" as="geometry" />
        </mxCell>
        <mxCell id="nnLEG21wNNKofwJg_tyF-6" style="edgeStyle=orthogonalEdgeStyle;rounded=0;orthogonalLoop=1;jettySize=auto;html=1;targetPerimeterSpacing=0;sourcePerimeterSpacing=0;" parent="1" source="kooUzmV5k-GNHN8CiD2J-45" target="nnLEG21wNNKofwJg_tyF-4" edge="1">
          <mxGeometry relative="1" as="geometry">
            <Array as="points">
              <mxPoint x="500" y="720" />
              <mxPoint x="680" y="720" />
            </Array>
          </mxGeometry>
        </mxCell>
        <mxCell id="kooUzmV5k-GNHN8CiD2J-45" value="nlp-synt-data&lt;div&gt;(Data Generator)&lt;/div&gt;" style="whiteSpace=wrap;html=1;" parent="1" vertex="1">
          <mxGeometry x="440" y="750" width="120" height="60" as="geometry" />
        </mxCell>
        <mxCell id="nnLEG21wNNKofwJg_tyF-8" style="edgeStyle=orthogonalEdgeStyle;rounded=0;orthogonalLoop=1;jettySize=auto;html=1;targetPerimeterSpacing=0;sourcePerimeterSpacing=0;" parent="1" source="kooUzmV5k-GNHN8CiD2J-50" target="nnLEG21wNNKofwJg_tyF-4" edge="1">
          <mxGeometry relative="1" as="geometry">
            <Array as="points">
              <mxPoint x="800" y="780" />
              <mxPoint x="800" y="780" />
            </Array>
          </mxGeometry>
        </mxCell>
        <mxCell id="kooUzmV5k-GNHN8CiD2J-50" value="LLM Libs" style="swimlane;" parent="1" vertex="1">
          <mxGeometry x="840" y="650" width="160" height="400" as="geometry" />
        </mxCell>
        <mxCell id="kooUzmV5k-GNHN8CiD2J-46" value="Ollama" style="shape=image;verticalLabelPosition=bottom;labelBackgroundColor=default;verticalAlign=top;aspect=fixed;imageAspect=0;image=https://github.com/jmorganca/ollama/assets/3325447/0d0b44e2-8f4a-4e99-9b52-a5c1c741c8f7;" parent="kooUzmV5k-GNHN8CiD2J-50" vertex="1">
          <mxGeometry x="40" y="160" width="80" height="80" as="geometry" />
        </mxCell>
        <mxCell id="VBUAaF2JNmheHbToEvTF-13" value="Hugging Face" style="shape=image;verticalLabelPosition=bottom;labelBackgroundColor=default;verticalAlign=top;aspect=fixed;imageAspect=0;image=data:image/svg+xml,PHN2ZyB4bWxucz0iaHR0cDovL3d3dy53My5vcmcvMjAwMC9zdmciIHZpZXdCb3g9IjI0Ljk3NDAwMDAwMDAwMDAzNiAzMi4xNDQ5OTk5OTk5OTk5NSAyMDYuOTQ1OTk5OTk5OTk5OTcgMTkxLjMwOTk5OTk5OTk5OTkiIHdpZHRoPSIyNTAwIiBoZWlnaHQ9IjI1MDAiIGZpbGw9Im5vbmUiPjxwYXRoIGZpbGw9IiNmZmYiIGQ9Ik0yMzAuNzIxIDE3Mi43YTE4Ljk3IDE4Ljk3IDAgMCAwLTIuNTc1LTUuNjkyYy4yNS0uOTE3LjQ0MS0xLjg0OS41NjgtMi43OTEuODI5LTUuOTc2LTEuMjQzLTExLjQ0Ny01LjE0Ny0xNS42OC0yLjExNS0yLjMxMi00LjM4Mi0zLjgzOS02Ljc4My00Ljc3NmE5MC42MDIgOTAuNjAyIDAgMCAwIDIuMzc3LTIwLjU2OGMwLTMuMTYzLS4xNzktNi4yNjEtLjQ3OS05LjMxM2ExMDUuODggMTA1Ljg4IDAgMCAwLS41NjctNC41NiA5MC45ODUgOTAuOTg1IDAgMCAwLTMuMDUxLTEzLjIxIDkxLjIyIDkxLjIyIDAgMCAwLTMuMDU0LTguMzc0IDkxLjkzIDkxLjkzIDAgMCAwLTYuMDQxLTExLjc1NCA4MS4zNjkgODEuMzY5IDAgMCAwLTQuOTA3LTcuMjYyIDY4Ljk3OSA2OC45NzkgMCAwIDAtMi43MDQtMy40NDYgOTAuNTM1IDkwLjUzNSAwIDAgMC05LjAzMy05LjQ4NiA2OS45MzggNjkuOTM4IDAgMCAwLTMuMzE1LTIuODYyIDgxLjc2IDgxLjc2IDAgMCAwLTMuNDI0LTIuNzA0IDk2LjA1NiA5Ni4wNTYgMCAwIDAtNy4yNjItNC45MDdjLTEzLjc4MS04LjM3LTI5Ljk0Mi0xMy4xNy00Ny4yMTUtMTMuMTctNTAuMjkyIDAtOTEuMDUyIDQwLjc2Mi05MS4wNTIgOTEuMDUxLS4wMDIgNy4wMTIuODEgMTQgMi40MiAyMC44MjQtMi4xNi45MzgtNC4yMyAyLjQtNi4xNSA0LjUxNS0zLjkwMyA0LjIzMS01Ljk3NiA5LjY4Mi01LjE0NyAxNS42NTguMTI2Ljk0OS4zMTUgMS44ODkuNTY3IDIuODEzYTE5LjAwNiAxOS4wMDYgMCAwIDAtMi41NzMgNS42OTRjLTEuMiA0LjU2MS0uODA1IDguNjc0LjcyIDEyLjI3OC0xLjY1OCA0LjcxLTEuMjQ0IDkuNzI2LjkxNSAxNC4wODcgMS41NyAzLjE4NSAzLjgxNyA1LjY0OSA2LjU4NyA3Ljg1MSAzLjI5MyAyLjYxOCA3LjQxNSA0Ljg0MiAxMi4zODcgNi45NzYgNS45MzIgMi41MyAxMy4xNzMgNC45MDcgMTYuNDY2IDUuNzc5IDguNTA2IDIuMjAyIDE2LjY2MiAzLjU5OCAyNC45MjggMy42NjYgMTEuNzc3LjEwOSAyMS45MTktMi42NiAyOS4xOC05Ljc0N2E4OC4wMiA4OC4wMiAwIDAgMCAxMC43NTIuNjU0IDkzLjc1MiA5My43NTIgMCAwIDAgMTEuMzU4LS43MTVjNy4yNDQgNy4xMzIgMTcuNDI1IDkuOTI2IDI5LjI0NSA5LjgxNCA4LjI2NS0uMDY2IDE2LjQyMS0xLjQ2MiAyNC45MDUtMy42NjcgMy4zMTUtLjg3MiAxMC41NTMtMy4yNDkgMTYuNDg4LTUuNzc5IDQuOTcyLTIuMTM3IDkuMDk0LTQuMzYxIDEyLjQwOS02Ljk3NSAyLjc0OS0yLjIwMyA0Ljk5NC00LjY2NiA2LjU2NS03Ljg1MSAyLjE4MS00LjM2MiAyLjU3My05LjM3OC45MzgtMTQuMDg4IDEuNTEtMy42MDQgMS45MDMtNy43MjYuNzA0LTEyLjI4M3ptLTguNDQgMTEuOTczYzEuNjcxIDMuMTcxIDEuNzc4IDYuNzU0LjMwNCAxMC4wOTEtMi4yMzYgNS4wNTctNy43OSA5LjA0MS0xOC41NzcgMTMuMzE4LTYuNzA4IDIuNjYtMTIuODUgNC4zNjEtMTIuOTA0IDQuMzc2LTguODcyIDIuMzAxLTE2Ljg5NiAzLjQ3LTIzLjg0MiAzLjQ3LTExLjUwMiAwLTIwLjA2MS0zLjE3NC0yNS40ODktOS40NDJhODUuNDYxIDg1LjQ2MSAwIDAgMS0yNy43NDcuMTU4Yy01LjQzNSA2LjE2NC0xMy45NDUgOS4yODQtMjUuMzUgOS4yODQtNi45NDcgMC0xNC45Ny0xLjE2OS0yMy44NDMtMy40Ny0uMDU0LS4wMTUtNi4xOTQtMS43MTYtMTIuOTA0LTQuMzc2LTEwLjc4Ni00LjI3Ny0xNi4zNDItOC4yNTgtMTguNTc3LTEzLjMxOC0xLjQ3NC0zLjMzNy0xLjM2Ny02LjkyLjMwNC0xMC4wOTEuMTU0LS4yOTUuMzItLjU4Mi40OTctLjg2YTEyLjgwMyAxMi44MDMgMCAwIDEtMS43MjgtMTAuMzQxYy42NjQtMi41MjMgMi4wMzUtNC42MjEgMy44OTctNi4xMjhhMTIuNzUgMTIuNzUgMCAwIDEtMS43My00LjgyMmMtLjUzNi0zLjcxNC42OTctNy40MjIgMy40Ny0xMC40NDYgMi4xNi0yLjM1MyA1LjIxMy0zLjY0OCA4LjU5My0zLjY0OGguMDlhODQuNDUgODQuNDUgMCAwIDEtMy44MzItMjUuMjM1YzAtNDYuNjcxIDM3LjgzNi04NC41MSA4NC41MTQtODQuNTEgNDYuNjc3IDAgODQuNTEzIDM3LjgzNSA4NC41MTMgODQuNTFhODQuMzk4IDg0LjM5OCAwIDAgMS0zLjg1OSAyNS4yOTljLjQwOC0uMDQuODA4LS4wNiAxLjIwMS0uMDYxIDMuMzggMCA2LjQzNCAxLjI5NSA4LjU5MiAzLjY0OCAyLjc3MyAzLjAyMSA0LjAwNyA2LjczMiAzLjQ3IDEwLjQ0NmExMi43NTcgMTIuNzU3IDAgMCAxLTEuNzI5IDQuODIyYzEuODYyIDEuNTA3IDMuMjM0IDMuNjA1IDMuODk3IDYuMTI4YTEyLjgwMyAxMi44MDMgMCAwIDEtMS43MjggMTAuMzQxYy4xNzcuMjc1LjM0NS41NjIuNDk3Ljg1N3oiLz48cGF0aCBmaWxsPSIjZmY5ZDAwIiBkPSJNMjIxLjc4NCAxODMuODE2YTEyLjc5OCAxMi43OTggMCAwIDAgMS43MjgtMTAuMzQxYy0uNjY0LTIuNTIzLTIuMDM2LTQuNjIxLTMuODk3LTYuMTI4YTEyLjc0IDEyLjc0IDAgMCAwIDEuNzI5LTQuODIyYy41MzctMy43MTQtLjY5Ni03LjQyMi0zLjQ3LTEwLjQ0Ni0yLjE1OC0yLjM1My01LjIxMi0zLjY0OC04LjU5Mi0zLjY0OC0uMzkzIDAtLjc5My4wMjEtMS4yMDEuMDYxYTg0LjQxNSA4NC40MTUgMCAwIDAgMy44NTItMjUuMjk3YzAtNDYuNjcyLTM3LjgzNi04NC41MS04NC41MDktODQuNTEtNDYuNjc0IDAtODQuNTE0IDM3LjgzNC04NC41MTQgODQuNTFhODQuNDYgODQuNDYgMCAwIDAgMy44MzIgMjUuMjM1aC0uMDljLTMuMzggMC02LjQzMyAxLjI5NC04LjU5MiAzLjY0Ny0yLjc3MyAzLjAyMS00LjAwNyA2LjczMy0zLjQ3IDEwLjQ0NmExMi43NjIgMTIuNzYyIDAgMCAwIDEuNzMgNC44MjNjLTEuODYyIDEuNTA2LTMuMjM0IDMuNjA0LTMuODk4IDYuMTI3YTEyLjgwOCAxMi44MDggMCAwIDAgMS43MyAxMC4zNDNjLS4xNzguMjc4LS4zNDIuNTY1LS40OTcuODYtMS42NyAzLjE3MS0xLjc3OCA2Ljc1NC0uMzAzIDEwLjA5MSAyLjIzNiA1LjA1NyA3Ljc5IDkuMDQxIDE4LjU3NyAxMy4zMTggNi43MDcgMi42NiAxMi44NSA0LjM2MSAxMi45MDQgNC4zNzYgOC44NzIgMi4zMDEgMTYuODk2IDMuNDcgMjMuODQyIDMuNDcgMTEuNDA2IDAgMTkuOTE2LTMuMTIgMjUuMzUxLTkuMjg0YTg1LjQ5IDg1LjQ5IDAgMCAwIDI3Ljc0Ny0uMTU4YzUuNDI4IDYuMjY4IDEzLjk4NyA5LjQ0MiAyNS40ODkgOS40NDIgNi45NDYgMCAxNC45Ny0xLjE2OSAyMy44NDEtMy40Ny4wNTUtLjAxNSA2LjE5NS0xLjcxNiAxMi45MDUtNC4zNzYgMTAuNzg3LTQuMjc3IDE2LjM0Mi04LjI2MSAxOC41NzctMTMuMzE4IDEuNDc0LTMuMzM3IDEuMzY3LTYuOTItLjMwNC0xMC4wOTEtLjE1Mi0uMjk3LS4zMi0uNTg1LS40OTctLjg2em0tMTExLjY0NyAxMy4xODFhMzQuNjU5IDM0LjY1OSAwIDAgMS0xLjUwMiAyLjM5NGMtMS40MDUgMi4wNTctMy4yNTMgMy42MjktNS4zOTggNC43OTctNC4xIDIuMjM2LTkuMjkgMy4wMTctMTQuNTYyIDMuMDE3LTguMzI5IDAtMTYuODY3LTEuOTQ5LTIxLjY1Mi0zLjE5LS4yMzYtLjA2MS0yOS4zMzQtOC4yOC0yNS42NS0xNS4yNzYuNjItMS4xNzcgMS42NC0xLjY0NyAyLjkyNS0xLjY0NyA1LjE4NyAwIDE0LjYzMiA3LjcyNCAxOC42OSA3LjcyNC45MDggMCAxLjU0OC0uMzg2IDEuODA5LTEuMzI4IDEuNzMtNi4yMDQtMjYuMjkzLTguODEyLTIzLjkzMy0xNy43OTYuNDE2LTEuNTkgMS41NDYtMi4yMzYgMy4xMzQtMi4yMzYgNi44NTgtLjAwMSAyMi4yNSAxMi4wNiAyNS40NjkgMTIuMDYuMjQ3IDAgLjQyNC0uMDczLjUyLS4yMjUuMDE0LS4wMjMuMDI4LS4wNDUuMDQxLS4wNjkgMS41MTEtMi40OTUuNjQ0LTQuMzA5LTkuNzA3LTEwLjY0OWwtLjk5NC0uNjA1Yy0xMS4zOTEtNi44OTQtMTkuMzg2LTExLjA0My0xNC44NC0xNS45OTMuNTI0LS41NzEgMS4yNjYtLjgyNCAyLjE2Ny0uODI0IDEuMDY4IDAgMi4zNi4zNTcgMy43ODUuOTU3IDYuMDE2IDIuNTM3IDE0LjM1NCA5LjQ1NiAxNy44MzcgMTIuNDczYTE0NiAxNDYgMCAwIDEgMS42MzMgMS40NDFzNC40MSA0LjU4NiA3LjA3NiA0LjU4NmMuNjE0IDAgMS4xMzUtLjI0MiAxLjQ4OC0uODQgMS44OTEtMy4xODgtMTcuNTYzLTE3LjkzLTE4LjY2LTI0LjAxMy0uNzQ0LTQuMTIxLjUyMi02LjIwOSAyLjg2Mi02LjIwOSAxLjExMyAwIDIuNDcuNDc0IDMuOTcgMS40MjUgNC42NSAyLjk1MSAxMy42MjggMTguMzc5IDE2LjkxNSAyNC4zODEgMS4xMDIgMi4wMTEgMi45ODMgMi44NjEgNC42NzggMi44NjEgMy4zNjMgMCA1Ljk5Mi0zLjM0My4zMDgtNy41OTEtOC41NDMtNi4zOTItNS41NDUtMTYuODQtMS40NjgtMTcuNDgzLjE3NC0uMDI4LjM1LS4wNDIuNTI1LS4wNDIgMy43MDggMCA1LjM0MyA2LjM4OSA1LjM0MyA2LjM4OXM0Ljc5NCAxMi4wMzggMTMuMDI5IDIwLjI2N2M3LjQ3MiA3LjQ2OSA4LjUxNiAxMy41OTggNC4xNjIgMjEuMjQ0em0yNi42MjkgMS40MWwtLjQyNy4wNTEtLjcyOC4wODNjLS4zODMuMDQtLjc2Ny4wNzgtMS4xNTIuMTEzbC0uMzc1LjAzNC0uMzQzLjAyOS0uNDg2LjAzOS0uNTM3LjAzOS0uNTM2LjAzNS0uMTE5LjAwOGMtLjE0LjAwOC0uMjguMDE3LS40MjIuMDI0bC0uMTc5LjAxYy0uMTY2LjAwOS0uMzMyLjAxNy0uNS4wMjRsLS41ODEuMDI1LS41MjcuMDE4LS4zNTIuMDFoLS4xNzljLS4xMSAwLS4yMTkuMDA2LS4zMjkuMDA3aC0uMTc0Yy0uMTEgMC0uMjE5IDAtLjMyOS4wMDVsLS40NDguMDA2aC0uNjI1Yy0uNDkxIDAtLjk4MS0uMDA1LTEuNDY5LS4wMTVsLS4zOTYtLjAwOWMtLjExMyAwLS4yMjYtLjAwNS0uMzM3LS4wMDlsLS40Mi0uMDEyLS41MjEtLjAyLS40Ny0uMDIxLS4xMjEtLjAwNS0uNDQ3LS4wMjNjLS4xMjUtLjAwNy0uMjQ4LS4wMTMtLjM3Mi0uMDIybC0uMjg5LS4wMTdhNzkuNjQgNzkuNjQgMCAwIDEtMS4wODktLjA3NmwtLjM4LS4wMzFjLS4xNi0uMDEyLS4zMi0uMDI3LS40NzktLjA0MS0uMTg3LS4wMTYtLjM3NC0uMDM0LS41NjEtLjA1MmE1OS42ODcgNTkuNjg3IDAgMCAxLS45MzktLjA5NWgtLjAxNWM0LjU3LTEwLjE5NSAyLjI1OS0xOS43MTctNi45NzYtMjguOTQ0LTYuMDU3LTYuMDQ5LTEwLjA4Ni0xNC45ODEtMTAuOTIyLTE2Ljk0Mi0xLjY5Mi01LjgwNS02LjE3LTEyLjI1OC0xMy42MDctMTIuMjU4LS42MjkgMC0xLjI1Ny4wNS0xLjg3OC4xNDgtMy4yNTguNTEzLTYuMTA2IDIuMzg4LTguMTM4IDUuMjEtMi4xOTYtMi43MzEtNC4zMy00LjkwMi02LjI2LTYuMTI4LTIuOTEtMS44NDUtNS44MTQtMi43ODEtOC42NDMtMi43ODEtMy41MzEgMC02LjY4NyAxLjQ1LTguODg3IDQuMDhsLS4wNTYuMDY3Yy0uMDQyLS4xNzMtLjA4Mi0uMzQ2LS4xMjMtLjUybC0uMDA1LS4wMjNhNzMuNjg1IDczLjY4NSAwIDAgMS0xLjA1NC01LjQxMmMwLS4wMTIgMC0uMDI0LS4wMDYtLjAzNi0uMDIyLS4xMzctLjA0Mi0uMjc1LS4wNjMtLjQxMi0uMDYyLS40MDYtLjEyLS44MTMtLjE3My0xLjIyLS4wMjQtLjE4NS0uMDUtLjM3LS4wNzMtLjU1NWwtLjA2OC0uNTU1Yy0uMDIyLS4xODUtLjA0LS4zNTMtLjA2LS41MjlsLS4wMDYtLjA0NGMtLjA4LS43Mi0uMTUtMS40NC0uMjEtMi4xNjJsLS4wMjItLjI3Ny0uMDM1LS40NzJjLS4wMS0uMTI5LS4wMi0uMjU5LS4wMjctLjM4OSAwLS4wMzEtLjAwNS0uMDYxLS4wMDYtLjA5YTUyLjQ3NiA1Mi40NzYgMCAwIDEtLjA2NS0xLjA4OGMtLjAxLS4xODktLjAyLS4zNzctLjAyOC0uNTY3bC0uMDItLjQ5Ni0uMDA1LS4xNS0uMDE2LS40NTctLjAxLS4zODljMC0uMTU1LS4wMDgtLjMxLS4wMS0uNDY1LS4wMDMtLjE1NS0uMDA3LS4zMjUtLjAwOC0uNDg5LS4wMDItLjE2NCAwLS4zMjYtLjAwNS0uNDg5LS4wMDQtLjE2NCAwLS4zMjcgMC0uNDkgMC00MS44NTMgMzMuOTMtNzUuNzg0IDc1Ljc4OC03NS43ODQgNDEuODU2IDAgNzUuNzg2IDMzLjkzIDc1Ljc4NiA3NS43ODR2Ljk3OWMwIC4xNjMtLjAwNS4zMjctLjAwOC40ODkgMCAuMTM1LS4wMDYuMjY4LS4wMS40MDUgMCAuMTItLjAwNS4yNDEtLjAwOS4zNTcgMCAuMTUzLS4wMDkuMzA2LS4wMTQuNDU5di4wMTJsLS4wMjEuNTMxYy0uMDA3LjE1NS0uMDEzLjMxMS0uMDIxLjQ2NmwtLjAwNS4xMS0uMDI3LjQ5NmE4MC43MjMgODAuNzIzIDAgMCAxLS4yNDEgMy4xODR2LjAxM2MtLjAxNy4xNzQtLjAzNC4zNDgtLjA1My41MjJsLS4wNDUuNDExLS4wODkuODA0LS4wNTEuNDA3LS4wNjMuNDc5Yy0uMDIzLjE3NC0uMDQ2LjM0OS0uMDcyLjUyMi0uMDI2LjE5NS0uMDU1LjM4OS0uMDg0LjU4M2wtLjA2OS40NTktLjA4Mi41MmMtLjAyOC4xNzMtLjA1OC4zNDUtLjA5LjUxNy0uMDMzLjE3My0uMDU5LjM0NS0uMDg5LjUxNy0uMDYuMzQ0LS4xMjMuNjg4LS4xODkgMS4wMzEtLjEwMS41MTMtLjIwNCAxLjAyNS0uMzEgMS41MzdsLS4xMS41MDdjLS4wMzYuMTY5LS4wNzUuMzM5LS4xMTMuNTA4LTIuMTMzLTIuMDczLTQuOTU4LTMuMjAyLTguMDczLTMuMjAyLTIuODI3IDAtNS43MzQuOTM1LTguNjQzIDIuNzgtMS45MyAxLjIyNi00LjA2MyAzLjM5OC02LjI2IDYuMTI4LTIuMDM1LTIuODIyLTQuODgzLTQuNjk3LTguMTM5LTUuMjFhMTIuMDUgMTIuMDUgMCAwIDAtMS44NzgtLjE0OGMtNy40MzkgMC0xMS45MTQgNi40NTMtMTMuNjA3IDEyLjI1OC0uODQgMS45NjEtNC44NyAxMC44OTMtMTAuOTMyIDE2Ljk1MS05LjIyOSA5LjE5OC0xMS41NTcgMTguNjc3LTcuMDU5IDI4Ljgzem03OC4yNDEtMjAuNDA5bC0uMDMuMDg5YTUuNDE2IDUuNDE2IDAgMCAxLS4yNjMuNTg3Yy0uMDc1LjE0LS4xNTYuMjc2LS4yNDQuNDA4LS4xNjcuMjQ5LS4zNS40ODctLjU0OS43MTEtLjA0Ni4wNTItLjA5LjEwNC0uMTQyLjE1NWE3Ljg1MyA3Ljg1MyAwIDAgMS0uMjIuMjI3Yy0xLjM0NiAxLjMzNC0zLjM5OCAyLjUwNC01LjcxOCAzLjU3Ny0uMjYzLjExOS0uNTMuMjM4LS43OTkuMzU4bC0uMjY4LjExOWMtLjE3OS4wNzktLjM1OC4xNTctLjU0Ni4yMzQtLjE3OS4wNzgtLjM2NS4xNTYtLjU1MS4yMzJsLS41NTguMjNjLTEuMzA1LjUzNy0yLjY0MiAxLjA0OS0zLjk0NiAxLjU1NGwtLjU1OC4yMTctLjU1MS4yMTZjLS4zNjcuMTQzLS43MjkuMjg2LTEuMDg1LjQyOWwtLjUzMS4yMTQtLjUyMi4yMTMtLjI1Ni4xMDhjLS4xNzEuMDcxLS4zMzguMTQyLS41MDUuMjEzLTMuODM3IDEuNjQ3LTYuNTk4IDMuMzIyLTYuMDE4IDUuNC4wMTYuMDU5LjAzNC4xMTUuMDU0LjE3LjA1Mi4xNTQuMTIzLjI5OS4yMTIuNDM2LjA1Mi4wODEuMTEyLjE1OC4xNzkuMjI4LjY4Mi43MDkgMS45MjMuNTk3IDMuNDg4LjAzNC4yMi0uMDgxLjQzOS0uMTY1LjY1Ni0uMjUzbC4xMzYtLjA1NmMuMzU4LS4xNTIuNzM3LS4zMjIgMS4xMjQtLjUwNi4wOTctLjA0Ni4xOTUtLjA5LjI5My0uMTQxIDEuOTE0LS45MzYgNC4wODMtMi4xOTYgNi4yMzUtMy4zNDNhNTUuODEyIDU1LjgxMiAwIDAgMSAyLjYxOC0xLjMyNWMyLjAzOC0uOTU5IDMuOTU0LTEuNjM5IDUuNDk0LTEuNjM5LjcyMyAwIDEuMzYxLjE0OCAxLjg5My40ODhsLjA4OS4wNTljLjMzNC4yMzUuNjE0LjUzNy44MjMuODg3LjA0MS4wNjcuMDgxLjEzOC4xMi4yMTEuNzYxIDEuNDQ1LjEyNCAyLjk0MS0xLjM2NyA0LjQwOC0xLjQzMSAxLjQwOS0zLjY1NyAyLjc5LTYuMTg3IDQuMDY4LS4xODguMDk1LS4zNzYuMTktLjU2Ny4yODMtNy41MyAzLjY5OC0xNy4zOTEgNi40ODMtMTcuNTI4IDYuNTE4LTIuNjI4LjY4MS02LjM4NiAxLjU3NS0xMC42MiAyLjI0NGwtLjYyNi4wOTgtLjEwMy4wMTVjLS40NzQuMDcyLS45NDkuMTM5LTEuNDI1LjIwMS0uNDgzLjA2NS0uOTcxLjEyNC0xLjQ2Mi4xNzlsLS4wOS4wMWE2OC41NiA2OC41NiAwIDAgMS01LjM1OC40MDZoLS4wMjZjLS42NDguMDIzLTEuMjk1LjAzNS0xLjk0My4wMzVoLS43NDdhNDYuMzggNDYuMzggMCAwIDEtMi45NTktLjEzNGMtLjAyMyAwLS4wNDggMC0uMDcxLS4wMDZhMzkuNjY2IDM5LjY2NiAwIDAgMS0yLjE0OS0uMjMxIDI0LjY0MSAyNC42NDEgMCAwIDEtLjcxNS0uMTA3IDU3LjY1MyA1Ny42NTMgMCAwIDEtLjcyNS0uMTIxbC0uMzI5LS4wNjItLjAyNS0uMDA1YTI2LjEwNyAyNi4xMDcgMCAwIDEtMS4wMzYtLjIxOWMtLjItLjA0NS0uMzk5LS4wODktLjU5Ni0uMTQzbC0uMTE5LS4wM2MtLjA5OC0uMDI0LS4xOTMtLjA1LS4yOS0uMDc2bC0uMDUzLS4wMTQtLjMwOC0uMDljLS4xMTItLjAzMS0uMjI0LS4wNjUtLjMzNi0uMDk4bC0uMDM5LS4wMTEtLjI5MS0uMDg5Yy0uMTEtLjAzNC0uMjItLjA3LS4zMjktLjEwNmwtLjI2OC0uMDg5LS4xOTctLjA2OWMtLjE5LS4wNjctLjM3OS0uMTM2LS41NjYtLjIwOGwtLjE3OC0uMDctLjE0Ny0uMDU4YTIzLjI0MyAyMy4yNDMgMCAwIDEtLjg0NS0uMzU4bC0uMTg1LS4wOS0uMDMxLS4wMTRjLS4wNjYtLjAzMS0uMTMxLS4wNjItLjE5Ny0uMDg5YTE3LjE0MiAxNy4xNDIgMCAwIDEtLjM4NC0uMTkxbC0uMDM5LS4wMTktLjE4NC0uMDk3YTE1Ljk0MyAxNS45NDMgMCAwIDEtLjk2MS0uNTQ2bC0uMTcyLS4xMDZhOC41NDcgOC41NDcgMCAwIDEtLjI1Ni0uMTY0bC0uMjI0LS4xNDgtLjI0MS0uMTY2LS4xNDQtLjEwM2MtLjE1Mi0uMTA4LS4zMDEtLjIyLS40NDctLjMzNWwtLjIzMy0uMTc5YTE1LjE3MyAxNS4xNzMgMCAwIDEtLjI3Ni0uMjI4Yy0uMDc3LS4wNjMtLjE1Mi0uMTI5LS4yMjctLjE5NWwtLjAwNi0uMDA1Yy0uMDgxLS4wNzEtLjE2LS4xNDItLjIzOS0uMjE1YTExLjg1IDExLjg1IDAgMCAxLS4yMzItLjIxNmwtLjAwOS0uMDA5YTguNTY5IDguNTY5IDAgMCAxLS4yMzUtLjIzMmMtLjA3Ny0uMDc4LS4xNTYtLjE1Ni0uMjMxLS4yMzYtLjA3NS0uMDc5LS4xNTItLjE2LS4yMjYtLjI0My0uMDc0LS4wODItLjE0Mi0uMTU3LS4yMTItLjIzOGwtLjAyMy0uMDI3YTkuMzQgOS4zNCAwIDAgMS0uMjAxLS4yMzggMTIuNDQyIDEyLjQ0MiAwIDAgMS0uNDE2LS41MjVjLS4xMzUtLjE4LS4yNjctLjM2NC0uMzk2LS41NTFsLS4xMjMtLjE4NGMtLjE2NC0uMjQtLjMyNC0uNDgyLS40NzktLjcyOGExOC42IDE4LjYgMCAwIDEtLjMzOS0uNTM2Yy0uMDcxLS4xMTMtLjEzOS0uMjI3LS4yMDctLjMzOWwtLjAyOC0uMDQ2Yy0uMDY1LS4xMS0uMTI5LS4yMTgtLjE5MS0uMzI3YTMuMTcgMy4xNyAwIDAgMS0uMTAyLS4xNzljLS4wMzMtLjA2Mi0uMDcxLS4xMjUtLjEwNi0uMTg4bC0uMDU3LS4wOTktLjAzNS0uMDY0Yy0uMDY3LS4xMi0uMTMzLS4yNDEtLjE5Ny0uMzYzLS4wMy0uMDU0LS4wNTktLjEwOC0uMDktLjE2bC0uMDg5LS4xNzMtLjA5LS4xNzFjLS4yMjUtLjQ1LS40MzgtLjkwNi0uNjM4LTEuMzY4bC0uMDcxLS4xNjljLS4wNDYtLjExMy0uMDg5LS4yMjUtLjEzNS0uMzM2LS4wMjItLjA1NC0uMDQ0LS4xMDctLjA2My0uMTYxYTE2LjczMSAxNi43MzEgMCAwIDEtLjc3Ni0yLjYzOWMtLjAxMS0uMDU1LS4wMjItLjExLS4wMzEtLjE2M2ExMS41NCAxMS41NCAwIDAgMS0uMTI3LS44MDZjLS4wMDgtLjA1My0uMDE0LS4xMDYtLjAyLS4xNTlsLS4wMTctLjE2MmExMS4zMzcgMTEuMzM3IDAgMCAxLS4wNDktLjYzOGMwLS4wNTQtLjAwNS0uMTA4LS4wMDctLjE2YTguNDM2IDguNDM2IDAgMCAxLS4wMDgtLjMxOGMtLjA1Ni00LjI3MyAyLjEwNi04LjM4MSA2LjcyOS0xMy4wMDIgOC4yMzUtOC4yMjcgMTMuMDI5LTIwLjI2NiAxMy4wMjktMjAuMjY2cy4xMjktLjUwNS4zOTctMS4yMzJjLjAzNy0uMTAxLjA3Ni0uMjA1LjEyLS4zMTQuMTU2LS40MDcuMzMyLS44MDcuNTI3LTEuMTk3bC4wMzktLjA3NWMuMTY2LS4zMzIuMzQ4LS42NTYuNTQ0LS45NzEuMDQ2LS4wNzMuMDktLjE0NS4xNDEtLjIxOC4xNDctLjIxNy4zMDItLjQyOS40NjUtLjYzNC4wODktLjExMS4xODYtLjIyMS4yODMtLjMyOC4wMzktLjA0Mi4wNzctLjA4NC4xMTgtLjEyNC40NzctLjQ5MyAxLjAyMi0uODk1IDEuNjM5LTEuMTA5bC4wNzgtLjAyNmMuMDUyLS4wMTcuMTA0LS4wMzMuMTU3LS4wNDguMDYxLS4wMTYuMTIyLS4wMy4xODUtLjA0M2wuMDI5LS4wMDZjLjEzLS4wMjYuMjYyLS4wNDMuMzk1LS4wNTJoLjAxMWMuMDY5IDAgLjEzOS0uMDA3LjIxLS4wMDcuMDg5IDAgLjE3MiAwIC4yNTkuMDA5LjA5LjAwOC4xNzkuMDE4LjI2OS4wMzIuNzQyLjExOCAxLjQ0OC41NiAyLjA1NiAxLjI0Mi4yMzEuMjYuNDM5LjU0LjYyMS44MzYuMTIuMTkyLjIzMy4zOTUuMzQuNjA5LjA0My4wODkuMDg0LjE3MS4xMjQuMjU5YTcuOCA3LjggMCAwIDEgLjI4LjY5MWMuMTk1LjU1LjM0MiAxLjExNi40MzkgMS42OTIuMDg0LjUwNS4xMzQgMS4wMTUuMTUgMS41MjYuMDA4LjI3My4wMDguNTUgMCAuODI5YTExLjkzNiAxMS45MzYgMCAwIDEtLjc4NyAzLjc5MmMtLjA0Mi4xMTEtLjA4OS4yMjMtLjEzNC4zMzVhOS4yNjQgOS4yNjQgMCAwIDEtLjMwMi42NjVjLS4wODEuMTY1LS4xNjYuMzMxLS4yNTguNDk2LS4wNi4xMS0uMTIzLjIyLS4xODYuMzMtLjE2MS4yNzQtLjMzNS41NDYtLjUyMi44MTdsLS4xMTMuMTYyYTEzLjYyOCAxMy42MjggMCAwIDEtMS40NzIgMS43MjggMTUuNDI1IDE1LjQyNSAwIDAgMS0xLjY5OSAxLjQ3Yy0uNjAyLjQ0Ni0xLjE2Ny45NC0xLjY4OSAxLjQ3Ny0xLjUwMyAxLjU3Ny0xLjg1MyAyLjk2OS0xLjUxNSA0LjAyNC4wNTQuMTY2LjEyNS4zMjcuMjExLjQ3OS4xMDEuMTc0LjIyMS4zMzQuMzU3LjQ4bC4wNTMuMDU1LjA1NC4wNTRjLjA1NC4wNTIuMTExLjEwMy4xNzIuMTUzbC4wNi4wNDhjLjE0NS4xMTIuMjk5LjIxMi40Ni4zLjA0Ny4wMjUuMDg5LjA1LjE0Mi4wNzQuMTc0LjA4NS4zNTMuMTU4LjUzNy4yMTcuMDUxLjAxNy4xMDIuMDMyLjE1NC4wNDhsLjA2NS4wMTcuMDkuMDI0LjA3Ny4wMTkuMDg0LjAxOC4wODMuMDE3LjA3OS4wMTNjLjA1OC4wMS4xMTguMDIuMTc4LjAyN2wuMDU3LjAwOS4xMDQuMDEuMDY0LjAwNy4xMDUuMDA3aC4wNjJsLjExLjAwNmguMzQ2bC4wOTktLjAwNi4xMTQtLjAwNy4xMzktLjAxMy4xMy0uMDE1Yy4wMyAwIC4wNi0uMDA4LjA5LS4wMTQuNC0uMDU4Ljc5Mi0uMTY0IDEuMTY3LS4zMTZsLjE1OS0uMDY3YTQuODE5IDQuODE5IDAgMCAwIC43NzItLjQyMWMuMjI5LS4xNS40NDUtLjMxOC42NDctLjUwMy4wNDgtLjA0My4wOTUtLjA4OS4xNDEtLjEzMy4wMjMtLjAyMi4wNDUtLjA0My4wNjctLjA2Ny4wNDQtLjA0NS4wODktLjA4OS4xMzMtLjEzOC4zMi0uMzUyLjU5Ny0uNzQuODI1LTEuMTU3YTIyOC45MjUgMjI4LjkyNSAwIDAgMSA2LjE1MS0xMC41MTRsLjI5NC0uNDcxLjI5Ny0uNDcxYy4xNDgtLjIzOS4yOTgtLjQ3NC40NDctLjcwOGwuMTUtLjIzNGMuNDk4LS43OCAxLjAwNC0xLjU1NSAxLjUxOS0yLjMyNGwuMzA1LS40NTZjLjYxMi0uOTA3IDEuMjIyLTEuNzg5IDEuODI3LTIuNjI3bC4zMDEtLjQxNWE1Ni4yMjQgNTYuMjI0IDAgMCAxIDIuMDU0LTIuNjYxbC4yODItLjMzOGMuMDQ3LS4wNTYuMDktLjExMi4xNDEtLjE2Ni4wOTMtLjExLjE4Ni0uMjE3LjI3Ny0uMzIxLjA0Ni0uMDUzLjA4OS0uMTA1LjEzOC0uMTU3bC4yNjgtLjMwMi4xMzQtLjE0N2MuMTM1LS4xNDUuMjY3LS4yODQuMzk3LS40MTcuMDktLjA5LjE3My0uMTc5LjI1OS0uMjYzYTEwLjUgMTAuNSAwIDAgMSAxLjY2OS0xLjM4NmwuMTQtLjA5Yy4xMzQtLjA5LjI3My0uMTc0LjQxNS0uMjUgMi4zNjQtMS4zNDIgNC4zMjEtMS40NDEgNS40NDgtLjMxNC42ODIuNjgyIDEuMDYgMS44MTMgMS4wMzkgMy4zODcgMCAuMDY5IDAgLjEzOS0uMDA1LjIxMXYuMDc3YzAgLjA3Mi0uMDA2LjE0NC0uMDEyLjIxNyAwIC4wOS0uMDEuMTc5LS4wMTkuMjY5LS4wMDkuMDg5LS4wMTQuMTU3LS4wMjMuMjM3IDAgLjAyMi0uMDA0LjA0NS0uMDA4LjA2OS0uMDA2LjA2OS0uMDE1LjE0LS4wMjUuMjExIDAgLjAyMSAwIC4wNDMtLjAwOC4wNjVhNS4zNTQgNS4zNTQgMCAwIDEtLjA0MS4yODNjLS4wMTEuMDktLjAyNi4xNzQtLjA0Mi4yNjJsLS4wMjYuMTQ5YTQuMDA3IDQuMDA3IDAgMCAxLS4xLjQyIDYuMTYgNi4xNiAwIDAgMS0uMjgzLjc1OCAxMC45OSAxMC45OSAwIDAgMS0uNTE0Ljk4N2MtLjEwNC4xNzgtLjIxMS4zNTMtLjMyMi41MjYtLjExNC4xNzktLjIzNC4zNi0uMzU4LjU0My0uMzE2LjQ1Mi0uNjQ0Ljg5NS0uOTg1IDEuMzI4bC0uMTU2LjE5N2E1MC41NiA1MC41NiAwIDAgMS0xLjcyMiAyLjAzNWwtLjE4Ny4yMWMtLjI1Mi4yODEtLjUwOC41NjQtLjc3Ljg0OGwtLjE5Ny4yMTRjLS4xMzEuMTQzLS4yNjguMjg2LS40LjQzLS4xMzEuMTQzLS4yNjguMjg4LS40MDYuNDMzbC0uNDExLjQzMy0uNDE3LjQzNi0uNDIuNDM2Yy0uMjgyLjI5Mi0uNTY1LjU4NC0uODUuODc2LTQuMDU1IDQuMTU5LTguMzI3IDguMzA0LTkuNzczIDEwLjg4OGE1LjM2NSA1LjM2NSAwIDAgMC0uMjYyLjUxOWMtLjIwNi40Ny0uMjkyLjg3Mi0uMjMzIDEuMTk3YS45MTQuOTE0IDAgMCAwIC4xMTEuMzAzYy4wODEuMTQxLjE4LjI3MS4yOTUuMzg3LjA1My4wNTIuMTA5LjEuMTY4LjE0NC4yOTguMjEyLjY1Ny4zMjEgMS4wMjMuMzExaC4xMTRsLjExNy0uMDA5LjExNy0uMDEzLjA5Ny0uMDE0Yy4wMTMtLjAwMi4wMjctLjAwNC4wNC0uMDA4bC4wODktLjAxNy4wMjMtLjAwNS4wOTktLjAyMS4wMzUtLjAwOS4xMDQtLjAyOGMuMDM1LS4wMS4wODMtLjAyMy4xMjUtLjAzNy4xNzYtLjA1My4zNDgtLjExNi41MTctLjE4OC4wODktLjAzNi4xNzYtLjA3NS4yNjItLjExNy4wNDUtLjAyLjA5LS4wNDEuMTMyLS4wNjNsLjEzNC0uMDY2Yy4zMi0uMTY2LjYzMi0uMzQ3LjkzNi0uNTQxbC4xMzMtLjA5Yy4wNDUtLjAyOC4wOS0uMDU3LjEzMy0uMDg5bC4xMzMtLjA4OS4wNzEtLjA0OS4xOTItLjEzNWMuMTc5LS4xMjMuMzQ2LS4yNS41MTUtLjM3OWwuMDE1LS4wMTIuMjY5LS4yMDhjLjM2Ny0uMjkuNzE1LS41ODIgMS4wMzEtLjg1N2wuMjEtLjE4NC4wMTktLjAxOC4xMS0uMDk3Yy4yNTgtLjIzMi40ODgtLjQ0OC42NzktLjYyNmwuMDc5LS4wNzdjLjA2OS0uMDY1LjEzMi0uMTI2LjE4OS0uMTc4bC4xMTItLjExMS4wNC0uMDM5LjAxMS0uMDExLjExNy0uMTE3LjA3NC0uMDc3LjAwOS0uMDA3LjAzNS0uMDMyLjA0NC0uMDQuMDE0LS4wMTMuMDM3LS4wMzQuMjA0LS4xNzkuMTE0LS4xMDJjLjA2MS0uMDUzLjEyLS4xMDcuMTc5LS4xNjJsLjEzNi0uMTIxYy4wMjUtLjAyLjA0OS0uMDQyLjA3NC0uMDY0bC4xNDMtLjEyNS4yMS0uMTg1LjExMi0uMDk3Yy40MzUtLjM3OC45NjQtLjgzNSAxLjU3Mi0xLjM1bC4yNDktLjIxMS40MTEtLjM0NS40MjEtLjM1MWMuNTUtLjQ1NyAxLjE0Mi0uOTQyIDEuNzY4LTEuNDQ1bC40MTEtLjMzYy4zNS0uMjc5LjcwOS0uNTYzIDEuMDczLS44NDkuMTQ3LS4xMTUuMjk2LS4yMy40NDgtLjM0NGExMDAuNzg2IDEwMC43ODYgMCAwIDEgMy43NjItMi43ODhsLjM4NC0uMjY4Yy4yNjktLjE4NS41MzctLjM3MS44MDUtLjU1MmwuMjQzLS4xNjRjLjQ3OS0uMzI1Ljk2NS0uNjQyIDEuNDU1LS45NTFsLjI0My0uMTUzLjI0MS0uMTVjLjI0Mi0uMTUuNDgyLS4yOTcuNzIxLS40NGwuMjM5LS4xNDMuNDc4LS4yNzguNDY5LS4yNjkuMDk1LS4wNTIuMzcxLS4yMDRjLjE1NS0uMDg0LjMwOS0uMTY1LjQ2My0uMjQ0bC4yMjktLjExOC4yMjMtLjExMmMuMDc4LS4wMzcuMTU1LS4wNzYuMjMxLS4xMTNhMjEuNDQ2IDIxLjQ0NiAwIDAgMSAxLjk1NC0uODQ1bC40MS0uMTQ0Yy4xMjMtLjA0MS4yNDMtLjA4LjM1OC0uMTE1bC4wNC0uMDEyYy4wNjItLjAyLjEyNC0uMDM4LjE4NS0uMDU0bC4wMTgtLjAwNWMuMTI4LS4wMzcuMjU1LS4wNjkuMzgtLjA5OWguMDA5YTguMTU2IDguMTU2IDAgMCAxIDEuMDc3LS4xODNjLjE2Ny0uMDE3LjMzNC0uMDI2LjUwMi0uMDI1aC4wODRjLjExMiAwIC4yMi4wMDcuMzI3LjAxOC4wNDkgMCAuMDk4LjAxLjE0Ni4wMTZoLjAyYy4wNDguMDA2LjA5Ni4wMTMuMTQ0LjAyNC4wNDcuMDA5LjA5NS4wMTcuMTQxLjAyOGguMDE1Yy4wNDcuMDEuMDg5LjAyMi4xMzguMDM2LjI1NC4wNzEuNDk2LjE4MS43MTguMzI1LjEwOS4wNzEuMjExLjE1MS4zMDUuMjRsLjAyNy4wMjZhLjgwNS44MDUgMCAwIDEgLjA1MS4wNWwuMDQ5LjA1M2MuNDAyLjQyMS43MzQuOTA0Ljk4NCAxLjQzbC4wMzguMDlhMy4zMDkgMy4zMDkgMCAwIDEgLjA0MiAyLjU1MyA0LjY3NiA0LjY3NiAwIDAgMS0uMzM5LjcxNSA4LjE0MSA4LjE0MSAwIDAgMS0xLjA5OSAxLjQ1MmwtLjA4OS4wOTVjLS4xMzMuMTQtLjI3MS4yOC0uNDE2LjQyLS4wNjQuMDYzLS4xMzEuMTI1LS4xOTguMTg4bC0uMjA1LjE4OS0uMTA3LjA5NWEyMi42ODIgMjIuNjgyIDAgMCAxLTEuMjg1IDEuMDU3Yy0uNTg2LjQ0OC0xLjE4My44OC0xLjc5MSAxLjI5N2E1OS41NiA1OS41NiAwIDAgMS0xLjExLjc0MyA5OS42NyA5OS42NyAwIDAgMS0yLjc4NiAxLjc2M2MtMS45NjggMS4yMS00LjE0OSAyLjUwNC02LjQ3NCAzLjkxMWwtLjYwMi4zNjVjLS42NTkuNDAyLTEuMjgxLjc4Ni0xLjg2NyAxLjE1MmwtLjI5NS4xODUtLjU1OC4zNThjLS4zNy4yMzctLjczOS40NzYtMS4xMDguNzE1bC0uMjk3LjE5NmMtLjE0NS4wOTQtLjI4OS4xOS0uNDMzLjI4NmwtLjE0MS4wOS0uNDMyLjI5MS0uMjI5LjE1Ny0uMjY4LjE4Ni0uMjQ5LjE3M2MtLjQxNy4yOTUtLjgwNS41NzYtMS4xNjIuODQzbC0uMTM0LjEwMmMtLjIxLjE1OS0uNDE4LjMyMS0uNjIzLjQ4Ni0uMzA5LjI0OS0uNTkxLjQ4Ny0uODQ0LjcxNmwtLjEyNC4xMTNjLS4wNzEuMDY1LS4xNDEuMTMtLjIwOC4xOTQtLjA0Ni4wNDUtLjA4OS4wOS0uMTM3LjEzM2wtLjA2NC4wNjRjLS4xNDMuMTQ0LS4yODMuMjkxLS40MTguNDQybC0uMDY2LjA3NmMtLjE0Ny4xNy0uMjc1LjMzMy0uMzg3LjQ5MmwtLjA1LjA3MWMtLjA4OC4xMjgtLjE2OS4yNi0uMjQyLjM5Ni0uMDE5LjAzNC0uMDM2LjA2OC0uMDUzLjEwMmwtLjA0OS4xMDItLjAzMy4wNzQtLjAyMS4wNS0uMDE3LjA0NS0uMDIzLjA2MWEyLjU1IDIuNTUgMCAwIDAtLjEzLjUyM2wtLjAwOC4wNjItLjAwNi4wNTh2LjMxNWMwIC4wMjYgMCAuMDUyLjAwNy4wOGwuMDA1LjA0OGMwIC4wMjYuMDA2LjA1MS4wMS4wNzkuMDA0LjAyNi4wMTEuMDczLjAxOS4xMXYuMDA1Yy4wMDcuMDM1LjAxNC4wNjkuMDIzLjEwNHMuMDE4LjA3NS4wMjkuMTExYy4wMTkuMDcxLjA0My4xNDEuMDY4LjIxMS4wMTYuMDQyLjAzMS4wODMuMDQ4LjEyNCAwIC4wMDguMDA2LjAxNy4wMS4wMjVsLjAzNi4wODEuMDUuMTExYy4wNTQuMTE1LjExMy4yMjcuMTc3LjMzNmwuMDY2LjExNC4wNjguMTE0YS40MjYuNDI2IDAgMCAwIC4wNDEuMDU0bC4wMjIuMDIzLjAyNS4wMjMuMDI2LjAyYS40ODcuNDg3IDAgMCAwIC4xOTMuMDgzYy41NzcuMTMgMS43NjMtLjM0NyAzLjMzOS0xLjE3OS4wODktLjA0OC4xODctLjA5OC4yODItLjE1bC40OC0uMjYyLjIzNC0uMTNjLjE2Ny0uMDg5LjMzNy0uMTkuNTExLS4yODlsLjMxNy0uMTc5YzIuMDgzLTEuMTk5IDQuNTcxLTIuNzM5IDcuMTQzLTQuMjQzLjI0MS0uMTQxLjQ4My0uMjgyLjcyNS0uNDIxbC40ODYtLjMxMWMuNTY0LS4zMjMgMS4xMzEtLjY0MiAxLjctLjk1N2E4MC4xMjEgODAuMTIxIDAgMCAxIDIuMTY4LTEuMTVsLjQ3Ni0uMjQxYy4zMTYtLjE1Ni42MjktLjMwOC45MzgtLjQ1NmE0MC44OTkgNDAuODk5IDAgMCAxIDEuODE1LS44MDlsLjMzNS0uMTM2LjA0LS4wMTZjMS43NzUtLjcwMyAzLjM4NC0xLjEzNyA0LjY4Ni0xLjEzNy4yODEtLjAwMy41NjMuMDIxLjg0LjA2OWguMDA5Yy4wODkuMDE2LjE3LjAzNC4yNTMuMDU0aC4wMTVjLjIxMy4wNTQuNDIuMTMxLjYxNi4yMy4yNzUuMTQyLjUyMi4zMzEuNzMxLjU1OS4wOTYuMTA2LjE4MS4yMjEuMjU2LjM0My4xNC4yMTUuMjUuNDQ4LjMyOS42OTIuMDMyLjA5NS4wNi4xODguMDg5LjI4N2EzLjkzIDMuOTMgMCAwIDEtLjA2IDIuMzA1eiIvPjxwYXRoIGZpbGwtcnVsZT0iZXZlbm9kZCIgZmlsbD0iI2ZmZDIxZSIgZD0iTTIwMy4yMSAxMjMuNjg1di0uNDkxYzAtNDEuODU0LTMzLjkxOC03NS43ODMtNzUuNzc1LTc1Ljc4My00MS44NTYgMC03NS43ODcgMzMuOTMxLTc1Ljc4NyA3NS43ODN2LjE2NGE3LjEzIDcuMTMgMCAwIDAgMCAuMzI3Yy4wMDUuMTYzLjAwNy4zMjYuMDA1LjQ4OWwuMDA1LjM2LjAwMy4xMjljMCAuMDYuMDAyLjExOS4wMDQuMTc5LjAwMy4wOTUuMDA1LjE5MS4wMDUuMjg2bC4wMTEuMzg5LjAxNi40NTcuMDA1LjE1LjAyLjQ3M3YuMDIzYy4wMDguMTg1LjAxOC4zNjkuMDI3LjU1M2wuMDAxLjAxNGMuMDEuMTg4LjAyLjM3Ny4wMzIuNTY2LjAxLjE3NC4wMi4zNDguMDMzLjUyMmwuMDAyLjAzMWMuMDA5LjE0OS4wMTkuMjk5LjAzLjQ0OGwuMDAzLjA0LjAzMy40MzIuMDAzLjAyOGMuMDA2LjA4NC4wMTIuMTY4LjAyLjI0OS4wNi43MjEuMTMgMS40NDIuMjEgMi4xNjFsLjAwNC4wNDUuMDYxLjUyOS4wNjguNTU1LjA1LjM3Ny4wMjMuMTc3Yy4wNTMuNDA4LjExMS44MTUuMTczIDEuMjIxbC4wMDQuMDI3LjA1OS4zODRjLjI4NiAxLjgyOS42NCAzLjY0NyAxLjA2IDUuNDVsLjAwNS4wMjIuMDMyLjEzNS4wOTEuMzg1LjA1Ni0uMDY3YzIuMi0yLjYzIDUuMzU2LTQuMDggOC44ODctNC4wOCAyLjgzIDAgNS43MzMuOTM2IDguNjQzIDIuNzgxIDEuOTMgMS4yMjYgNC4wNjQgMy4zOTcgNi4yNiA2LjEyOCAyLjAzMi0yLjgyMiA0Ljg4LTQuNjk4IDguMTM4LTUuMjEuNjIxLS4wOTggMS4yNS0uMTQ3IDEuODc4LS4xNDggNy40MzYgMCAxMS45MTUgNi40NTMgMTMuNjA3IDEyLjI1OC44MzYgMS45NjEgNC44NjUgMTAuODkzIDEwLjk0MSAxNi45MzUgOS4yMzYgOS4yMjcgMTEuNTQ3IDE4Ljc0OCA2Ljk3NiAyOC45NDNoLjAxNmMuMzExLjAzNS42MjQuMDY3LjkzOS4wOTYuMTg3LjAxOC4zNzMuMDM2LjU2MS4wNTJsLjA2Ni4wMDYuNDEzLjAzNS4zOC4wM2MuMzYyLjAyOC43MjUuMDU0IDEuMDg5LjA3N2wuMjg5LjAxNy4yMjkuMDE0LjE0Mi4wMDguNDQ3LjAyMy4xMjIuMDA1LjQ2OS4wMjEuNTIyLjAyLjQxOS4wMTIuMDcuMDAyYy4wODkuMDA0LjE3OC4wMDcuMjY3LjAwN2wuMDk2LjAwM2MuNTkuMDE0IDEuMTc5LjAyMSAxLjc2OS4wMmguNjI2bC40NDctLjAwNWMuMTEtLjAwNS4yMTktLjAwNS4zMy0uMDA1aC4xNzRsLjE1MS0uMDA0Yy4wNTktLjAwMi4xMTgtLjAwNC4xNzgtLjAwNGguMTc5bC4zNTEtLjAwOS41MjgtLjAxOC41ODEtLjAyNmMuMTY4LS4wMDYuMzM0LS4wMTUuNS0uMDIzbC4xNzktLjAxMS4yNjYtLjAxNC4xNTYtLjAwOS4xMTgtLjAwOC41MzctLjAzNS41MzYtLjAzOS40ODctLjAzOS4zNDItLjAyOS4zNzYtLjAzNGE2Mi4zNDcgNjIuMzQ3IDAgMCAwIDEuODgtLjE5N2wuNDI3LS4wNTFjLTQuNDk5LTEwLjE1Mi0yLjE3LTE5LjYzMiA3LjAyNy0yOC44MjIgNi4wNjMtNi4wNTggMTAuMDkyLTE0Ljk5IDEwLjkzMi0xNi45NTIgMS42OTMtNS44MDQgNi4xNjktMTIuMjU3IDEzLjYwNy0xMi4yNTcuNjI5IDAgMS4yNTguMDUgMS44NzkuMTQ4IDMuMjU1LjUxMiA2LjEwMyAyLjM4OCA4LjEzOCA1LjIxIDIuMTk3LTIuNzMgNC4zMy00LjkwMyA2LjI2MS02LjEyOSAyLjkwOS0xLjg0NCA1LjgxNS0yLjc4IDguNjQyLTIuNzggMy4xMTYgMCA1Ljk0IDEuMTMgOC4wNzMgMy4yMDMuMDM5LS4xNjkuMDc3LS4zMzguMTE0LS41MDhsLjEwOS0uNTA2Yy4wMzktLjE4NS4wNzgtLjM3LjExNS0uNTU1LjA2Ni0uMzI3LjEzMi0uNjU0LjE5NS0uOTg0LjA2Ni0uMzQyLjEyOS0uNjg2LjE4OS0xLjAzbC4wMzEtLjE4NmMuMDE5LS4xMS4wMzctLjIyLjA1OC0uMzMxLjAzNC0uMTcyLjA2Mi0uMzQ0LjA5LS41MThsLjAxMS0uMDY2LjA3MS0uNDUzLjA3LS40NTl2LS4wMDRjLjA1MS0uMzM5LjA5OS0uNjc4LjE0NC0xLjAxN2wuMDExLS4wODQuMDYzLS40NzguMDUxLS40MDguMDktLjgwNC4wMzUtLjMyMy4wMDktLjA4OGMuMDE5LS4xNzQuMDM3LS4zNDguMDUzLS41MjJ2LS4wMTRjLjAxMy0uMTM4LjAyNy0uMjc3LjAzOS0uNDE2LjA3MS0uNzg4LjEzMS0xLjU4LjE3OS0yLjM3NS4wMDktLjEzLjAxNi0uMjYxLjAyNC0uMzkydi0uMDA2bC4wMjYtLjQ5MS4wMDYtLjExYy4wMTYtLjMzMi4wMy0uNjY0LjA0MS0uOTk2di0uMDEybC4wMDUtLjEzYy4wMDUtLjEwOS4wMDktLjIxOS4wMDktLjMyOWwuMDAyLS4wNDRjLjAwNC0uMTAzLjAwOC0uMjA5LjAwOC0uMzE0bC4wMDMtLjA5Yy4wMDMtLjEwNS4wMDYtLjIwOS4wMDYtLjMxNGwuMDAyLS4wODljLjAwMy0uMTMzLjAwNi0uMjY3LjAwNi0uNHptLTk0LjU3MiA3NS43MDZjNi4wMDItOC44MDEgNS41NzYtMTUuNDA3LTIuNjU4LTIzLjYzNy04LjIzNi04LjIzMS0xMy4wMjktMjAuMjY3LTEzLjAyOS0yMC4yNjdzLTEuNzg5LTYuOTkxLTUuODY5LTYuMzQ5LTcuMDczIDExLjA4OSAxLjQ3IDE3LjQ4NGM4LjU0MiA2LjM5NS0xLjcgMTAuNzMxLTQuOTg4IDQuNzMtMy4yODgtNi4wMDItMTIuMjY1LTIxLjQyOS0xNi45MTktMjQuMzhzLTcuOTI3LTEuMjk3LTYuODMgNC43ODVjLjU0NSAzLjAxOSA1LjYxMyA4LjE3MiAxMC4zNDggMTIuOTg2IDQuODA0IDQuODg0IDkuMjY1IDkuNDIgOC4zMTEgMTEuMDI1LTEuODkzIDMuMTg3LTguNTYtMy43NDUtOC41Ni0zLjc0NXMtMjAuODc2LTE4Ljk5OC0yNS40Mi0xNC4wNDdjLTQuMTkgNC41NjMgMi4yNzEgOC40NDIgMTIuMjI3IDE0LjQyMS44NDYuNTA4IDEuNzE4IDEuMDMyIDIuNjExIDEuNTcyIDExLjM5MSA2Ljg5NiAxMi4yNzcgOC43MTUgMTAuNjYgMTEuMzI0LS41OTcuOTY0LTQuNDEtMS4zMjUtOS4xLTQuMTQtNy45OTUtNC44MDEtMTguNTM3LTExLjEzLTIwLjAyNi01LjQ2NS0xLjI4OCA0LjkwMyA2LjQ2OCA3LjkwNyAxMy41MDIgMTAuNjMyIDUuODYgMi4yNyAxMS4yMiA0LjM0NiAxMC40MzEgNy4xNjQtLjgxNyAyLjkyMi01LjI0Ni40ODUtMTAuMDg3LTIuMTc5LTUuNDM1LTIuOTkxLTExLjM5LTYuMjY3LTEzLjMzOS0yLjU3LTMuNjgzIDYuOTkgMjUuNDEgMTUuMjE5IDI1LjY1IDE1LjI4IDkuNCAyLjQzOCAzMy4yNzIgNy42MDQgNDEuNjE1LTQuNjI0em0zOC42NjUgMGMtNi4wMDItOC44MDEtNS41NzYtMTUuNDA3IDIuNjU5LTIzLjYzNyA4LjIzNS04LjIzMSAxMy4wMjgtMjAuMjY3IDEzLjAyOC0yMC4yNjdzMS43ODktNi45OTEgNS44NjktNi4zNDkgNy4wNzMgMTEuMDg5LTEuNDY5IDE3LjQ4NGMtOC41NDMgNi4zOTUgMS42OTkgMTAuNzMxIDQuOTg3IDQuNzMgMy4yODktNi4wMDIgMTIuMjYtMjEuNDI5IDE2LjkxNC0yNC4zOHM3LjkyOS0xLjI5NyA2LjgzMSA0Ljc4NWMtLjU0NCAzLjAxOS01LjYxMyA4LjE3Mi0xMC4zNDggMTIuOTg3LTQuODA0IDQuODg0LTkuMjY1IDkuNDE5LTguMzEyIDExLjAyNCAxLjg5MyAzLjE4NyA4LjU2NS0zLjc0OSA4LjU2NS0zLjc0OXMyMC44NzUtMTguOTk3IDI1LjQyMS0xNC4wNDZjNC4xODkgNC41NjItMi4yNzIgOC40NDItMTIuMjI5IDE0LjQyMS0uODcxLjUyMy0xLjc0MSAxLjA0Ny0yLjYxIDEuNTcyLTExLjM5MSA2Ljg5Ni0xMi4yNzcgOC43MTUtMTAuNjYxIDExLjMyMy41OTguOTY1IDQuNDExLTEuMzI1IDkuMS00LjE0IDcuOTk2LTQuOCAxOC41MzgtMTEuMTMgMjAuMDI3LTUuNDY0IDEuMjg5IDQuOTAzLTYuNDY4IDcuOTA3LTEzLjUwMiAxMC42MzItNS44NiAyLjI3LTExLjIyIDQuMzQ2LTEwLjQzMiA3LjE2NC44MTYgMi45MjEgNS4yNDQuNDg0IDEwLjA4NC0yLjE4IDUuNDM1LTIuOTkxIDExLjM5MS02LjI2OSAxMy4zMzktMi41NjkgMy42ODQgNi45OTQtMjUuNDE0IDE1LjIxNS0yNS42NDkgMTUuMjc1LTkuNCAyLjQ0Ni0zMy4yNzIgNy42MTItNDEuNjEyLTQuNjE2eiIgY2xpcC1ydWxlPSJldmVub2RkIi8+PHBhdGggZmlsbC1ydWxlPSJldmVub2RkIiBmaWxsPSIjMzIzNDNkIiBkPSJNMTUyLjA0NyAxMDIuNTY3YzEuMTgyLjQxOCAyLjA2MSAxLjY5IDIuODk3IDIuOTAxIDEuMTMgMS42MzYgMi4xODIgMy4xNTkgMy43OTYgMi4zMDFhMTAuOTA5IDEwLjkwOSAwIDAgMCA0LjI0Ny0xNS4yMTQgMTAuOTEyIDEwLjkxMiAwIDAgMC03Ljc0Mi01LjE5OCAxMC45MDQgMTAuOTA0IDAgMCAwLTExLjY4OSA2LjU4OSAxMC45MDkgMTAuOTA5IDAgMCAwIC40MzYgOS4zMTRjLjc0OCAxLjQwNyAyLjQwOC43NDMgNC4xNi4wNDIgMS4zNzMtLjU0OSAyLjgwNC0xLjEyMSAzLjg5NS0uNzM1em0tNTEuMzc1IDBjLTEuMTgyLjQxOC0yLjA2MSAxLjY5MS0yLjg5NyAyLjkwMS0xLjEzIDEuNjM3LTIuMTgzIDMuMTU5LTMuNzk2IDIuMzAxYTEwLjkwMyAxMC45MDMgMCAwIDEgOC4yNjMtMjAuMDY4IDEwLjkwOSAxMC45MDkgMCAwIDEgNy43MDcgOS4zNDggMTAuOTA2IDEwLjkwNiAwIDAgMS0xLjIyMSA2LjIxMWMtLjc0OSAxLjQwNy0yLjQwOS43NDMtNC4xNjEuMDQzLTEuMzc0LS41NS0yLjgwMy0xLjEyMi0zLjg5NS0uNzM2em00My40MjcgNDYuNzUxYzguMTQzLTYuNDE1IDExLjEzNC0xNi44ODkgMTEuMTM0LTIzLjM0MSAwLTUuMS0zLjQzMS0zLjQ5NS04LjkyNC0uNzc1bC0uMzEuMTUzYy01LjA0MiAyLjQ5Ny0xMS43NTQgNS44MjItMTkuMTIyIDUuODIyLTcuMzY5IDAtMTQuMDgxLTMuMzI1LTE5LjEyMi01LjgyMy01LjY3MS0yLjgwOS05LjIyOC00LjU3MS05LjIyOC42MjQgMCA2LjY1NiAzLjE4MiAxNy41ODUgMTEuOTE2IDIzLjkzNGExOC45NjggMTguOTY4IDAgMCAxIDExLjU3NS05Ljc4NmMuODcyLS4yNiAxLjc3IDEuMjQxIDIuNjg5IDIuNzc4Ljg4NyAxLjQ4MiAxLjc5NCAyLjk5OCAyLjcxNiAyLjk5OC45ODMgMCAxLjk0OC0xLjQ5NCAyLjg5MS0yLjk1Mi45ODUtMS41MjUgMS45NDYtMy4wMSAyLjg3NS0yLjcxM2ExOC45NjcgMTguOTY3IDAgMCAxIDEwLjkxIDkuMDgxeiIgY2xpcC1ydWxlPSJldmVub2RkIi8+PHBhdGggZmlsbD0iI2ZmMzIzZCIgZD0iTTE0NC4wOTcgMTQ5LjMxN2MtNC4yNDEgMy4zNDItOS44NzggNS41ODMtMTcuMjE5IDUuNTgzLTYuODk3IDAtMTIuMjkxLTEuOTc4LTE2LjQzNS00Ljk4OWExOC45NjYgMTguOTY2IDAgMCAxIDExLjU3NS05Ljc4NmMxLjcxMi0uNTExIDMuNTI3IDUuNzc2IDUuNDA1IDUuNzc2IDIuMDEgMCAzLjk0Ny02LjI0NiA1Ljc2Ni01LjY2NWExOC45NzQgMTguOTc0IDAgMCAxIDEwLjkwOCA5LjA4MXoiLz48cGF0aCBmaWxsLXJ1bGU9ImV2ZW5vZGQiIGZpbGw9IiNmZmFkMDMiIGQ9Ik04MS4yIDExMS42NGE3LjA3OCA3LjA3OCAwIDAgMS02LjY1LjY1NSA3LjA2MiA3LjA2MiAwIDAgMS0zLjgzNy0zLjgzNyA3LjA4MiA3LjA4MiAwIDAgMSAuNjU3LTYuNjUgNy4wODcgNy4wODcgMCAxIDEgOS44MyA5LjgzMnptMTAxLjQxMyAwYTcuMDggNy4wOCAwIDAgMS02LjY1MS42NTUgNy4wNjQgNy4wNjQgMCAwIDEtMy44MzctMy44MzcgNy4xMDIgNy4xMDIgMCAwIDEtLjUwNC0zLjQwNyA3LjEwMyA3LjEwMyAwIDAgMSAzLjQxMS01LjM4NSA3LjA4MyA3LjA4MyAwIDAgMSA4LjY1NiAxLjA3IDcuMDc5IDcuMDc5IDAgMCAxIDEuNTM2IDcuNzI0IDcuMDg5IDcuMDg5IDAgMCAxLTIuNjExIDMuMTh6IiBjbGlwLXJ1bGU9ImV2ZW5vZGQiLz48L3N2Zz4=;" parent="kooUzmV5k-GNHN8CiD2J-50" vertex="1">
          <mxGeometry x="40" y="50" width="80" height="80" as="geometry" />
        </mxCell>
        <mxCell id="w6uwNzEU7bL1x4UOTtyp-10" value="Unsloth" style="shape=image;verticalLabelPosition=bottom;labelBackgroundColor=default;verticalAlign=top;aspect=fixed;imageAspect=0;image=data:image/jpeg,/9j/4AAQSkZJRgABAQAASABIAAD/4QBMRXhpZgAATU0AKgAAAAgAAYdpAAQAAAABAAAAGgAAAAAAA6ABAAMAAAABAAEAAKACAAQAAAABAAAAyKADAAQAAAABAAAAyAAAAAD/7QA4UGhvdG9zaG9wIDMuMAA4QklNBAQAAAAAAAA4QklNBCUAAAAAABDUHYzZjwCyBOmACZjs+EJ+/8AAEQgAyADIAwEiAAIRAQMRAf/EAB8AAAEFAQEBAQEBAAAAAAAAAAABAgMEBQYHCAkKC//EALUQAAIBAwMCBAMFBQQEAAABfQECAwAEEQUSITFBBhNRYQcicRQygZGhCCNCscEVUtHwJDNicoIJChYXGBkaJSYnKCkqNDU2Nzg5OkNERUZHSElKU1RVVldYWVpjZGVmZ2hpanN0dXZ3eHl6g4SFhoeIiYqSk5SVlpeYmZqio6Slpqeoqaqys7S1tre4ubrCw8TFxsfIycrS09TV1tfY2drh4uPk5ebn6Onq8fLz9PX29/j5+v/EAB8BAAMBAQEBAQEBAQEAAAAAAAABAgMEBQYHCAkKC//EALURAAIBAgQEAwQHBQQEAAECdwABAgMRBAUhMQYSQVEHYXETIjKBCBRCkaGxwQkjM1LwFWJy0QoWJDThJfEXGBkaJicoKSo1Njc4OTpDREVGR0hJSlNUVVZXWFlaY2RlZmdoaWpzdHV2d3h5eoKDhIWGh4iJipKTlJWWl5iZmqKjpKWmp6ipqrKztLW2t7i5usLDxMXGx8jJytLT1NXW19jZ2uLj5OXm5+jp6vLz9PX29/j5+v/bAEMAAgICAgICAwICAwQDAwMEBQQEBAQFBwUFBQUFBwgHBwcHBwcICAgICAgICAoKCgoKCgsLCwsLDQ0NDQ0NDQ0NDf/bAEMBAgICAwMDBgMDBg0JBwkNDQ0NDQ0NDQ0NDQ0NDQ0NDQ0NDQ0NDQ0NDQ0NDQ0NDQ0NDQ0NDQ0NDQ0NDQ0NDQ0NDf/dAAQADf/aAAwDAQACEQMRAD8Akoooru3P8yZSsFFFFUUFFFFABRRRQAUUUUAFFFFABRRRQAUUUUAFFFFABRRRQAUUUUAFFFFABRRRQB//0JKKKK9A/wAywooooAKKKKACiiigAooooAKK1NF0PWfEepQ6PoFlNf3s5xHBApZz6n0CjuxIA7mvt/4efsd5hj1L4m3/AJZ++dOsXwoA7SzkZ+oQDH980nJLc+r4a4KzfPanJl9JuK3k9Ir5/pufBTOq/eIGfU0oKnqQK+6PGf7VH7Bn7NTzaU+vaPPqsJKyWehxNrN9vA5SSWMSKjeollXFP+CX7dn7KH7VXjH/AIVVoFteQ6xdQzyWdpr2mxRJfLCheVYWSSdN6xgvtYoSoOM4NZOsuh+w0fo9Yx0Oari4qfZRbX33X5HwrRXs3x3+Hdp8NPH9xoemMzaddQrfWauSWjilZl8rJyTsZSATztxnnNeM1tc/A81yyvl+LqYLEq04Np/IKKKKDzwooooAKKKKACiiigAooooA/9GSiiivQP8AMsKKKKACiiigAorp/CPg3xJ461qLw/4XsnvLyXk4+WOJB1eRzwiD1PfgZJAP3vpXwz+Cn7MnhGb4mfGjWtPjexVWl1LUyFtreXqsdrCQzSSkjCAK8zH7oGcVEppH3nBfh7mfEdS+HXLSW83t8u7/AKdj5e+HX7OPxH8frHfm1Gi6W+GF3fgo0iHBzFD99uDxu2qezV9RW/7NfwQ+Gmlf8JD8VdejltIBiW51e8j02wVuvTegHTo0jV+WH7Sn/BY7xJqUtx4Y/Zl0kaNYgtGfEesQrLeSj+9bWjZihHo03mMRjKIa/Grx98UfiJ8Vdak8Q/EjxHqfiPUJCT5+o3L3BQH+GNXJWNfRUAA7CsJVm9j+o+HPB7h/LIJ1aftqneeq+Udretz+nvxf/wAFEv2GPgRpN7b+AL+28QalFGRHp/hexLC4dc7Q14yJb7c9W8xiByAeh/Cz9pv9v/4/ftK3lzY6lq0nhnwlIzCHw5o8rRW5j6AXUo2yXbY6mTCZ5WNOlfDlIKybb3P0/C4ajh4KlQioxWySsvuQi1+lX/BPf49/ss/s1eJLz4mfF2y8San40KyWektp9jBNYaZayrtklBe5jke4mBKZ8vCR5AyXOPzVWlIzSNj+tHTP28v2AfjdLHaeJPEWn2t0VCIviTTpbN0UknAuJIzEgzz/AK0V6fc/sy/Bb4kaZ/b/AML9eSK1uADHcaXeR6nYsTzwdz5+iyLX8b5Ga9B+HfxZ+Jfwn1pfEPw18Tan4b1BSC02m3L2/mAfwyKp2SL6q6sD3FWqklsfN5xwhk2aX+vYaMm+trP71r+J/Rx8Rf2dfiN8PRJfNaDWNJUn/TLANIUX1lhxvTjkkblH96vB65n9mn/gsZrVlLa+Ff2nNJXUrNtsX/CS6PCqXMXbfc2S4jkHdmg2MB0jc1+oniD4U/Bz9pDwnF8TvgvrOnzSagGkh1HTmD2l1IMEx3ESjKSA4D5VZUJ+cHGK2hVT3PwPjLwKlTjLE5DK/Xklv/26/wBH95+cNFdJ4q8JeIvBGtTaB4osZLK8i5AblJEPR43HyuhxwR9Dgggc3W1z+ccRh6uHqyoV4uMo6NPdMKKKKZiFFFFABRRRQB//0pKKKK9A/wAywooooAK7HwJ4G174h+JLbwz4fi3zTHdLKwPlW8Kkb5ZG7BQeB1Y4A5NczY2N5ql7BpunQvcXd1IkMEKDLSSOQqqPqT+FfojquvfDz9hf9n/VfiP45fz71EjadYiBPqOpShhb2VuSOgOQDjCoHlYYDVFSSSufpHhtwHV4jx9qmlCGs3/7avN/gjJ+K/xX+CX/AAT++Ejavq+dQ1zUdy2WnoyjUNZvEA7kMIoIsjc5BSJSAAzsFf8Al8/aK/ad+LH7TnjSTxf8StTMsUbyDTtJty0enabC5/1dvDkgHGN0jbpHIyzHAAw/j18d/H37RXxI1L4l/EG7M17esUt7ZGP2awtFJMVtbofuRxg/Vmy7EsxJ8Urkk7vU/t7Lsvw2Bw8cLhIKMI6JIKKKKk7gooooAKKKfHG8rbUBJwScDPAGSfwFADKKKKACvpH9m39qn4tfsueMU8T/AA41Jvsc7p/ami3TM+nalEv8M0WRhwM7JU2yJnhsEqfm6igD+w/4X/FP4H/8FAfhMNa0F/sWsacoW9spGH9paJeyL0PTzYJCPlcYSVR0V1Kp8S+O/A2vfDzxHc+GvEERSaA5jlAPlXER+7LGT1Vh+IOQeRX4Z/AL48+P/wBnL4lab8Tfh7dmG9s22XNq5P2a/tGIMttcICN0cgH1VgHUhlBr+rrTdb+Hf7cnwB0v4k+BJBFeMjNbrIQbjT9QjA+0WNzjsTgE9GUpIoxtztCfQ/HfFLw1o53hZY7BRSxMFf8Axrs/Ps/kfnBRVm8s7vTryfTr+JoLq1kaKeFxh45EJVlYdiCCKrV0p3Vz+LpRlGThNWa0CiiimIKKKKAP/9OSiiivQP8AMsKKKvaZp91q2pWmlWS77i9nit4V6ZllcIv6tSbsXTg5yUI7s+1/2QPhgl9e3PxL1eHMdm72ulhxwZcYmlA6fKD5ankZL9wK/DP/AIKR/tYT/tG/Gu40Dw3eM/gbwTLPp2kLG58q8uQdtzfEdG8xl2RHoIlUjG5s/tj+3n8W7X9lP9j+Twx4SuDBrfiGFPC+kuh2yp58bNe3QAzhkgDkMMbZXQ56V/JrXLVndn+gHAfDNLIcnpYKK9615PvJ7/5LyRHRUlfUn7LH7JHxS/ax8Zt4c8DQLZ6TYFG1jXrpSbLT4nPGcYMszgHy4VO5sZJVAzrkfYnyvX0l8Dv2R/j9+0RfxQfDLwpeXens4WXWLpDaaVACeS91KFRiuOVj3v6Ka/pw+BP/AATd/Zc+CNjayyeGYPGevRBWl1fxHGt4zSAcmK2YG2hUHO3bGXA4Lsea+8bW0trK2itLSJIIYVCRxxqERFHQKowAB2AoA/m4/aJ/4J2eBP2Vf2NvEXj3xTfnxN8Q573SLZL6LfDp+nLNdp5sdrDkGQsmUaWbJI+6kfIP406HoWseJdZsfD3h+zm1DUtTuIrSztbdDJNPPMwSONFXJZmYgADqa/tG/bG+Ad7+0t+z94k+E+k30Onanfi3utPuLnd5C3dnMk0ay7QzBJNpQsASu7dg4wfjX9gP/gm3D+zfqcnxT+LtxYa148AeHS4LPdNZ6PE4KvIkkioZLmRTt37QI0JC53E0AfzB6/oWreF9c1Dw3r9rJZanpV1NZXttKAHhuLdzHJG2CRlXUg4OMiv3H/4IsfB3Q9b1H4i/FvXrOK8lsIbbw7p/nRrIiC8R5b3hsjLRiJDxyjMDwxFfBv8AwUd+FeofCv8Aa78cwzwlLDxNd/8ACSadLghZYdTzJLt/653PmxkdttftL/wRn0SPT/2VtX1bGJNV8X6hIx9VhtrSIfqpoA5j9qX/AIJF/Dz4mXN54y+Ad7B4G16fdLLo8sZOh3EhyT5SxgvZlj1EYeLssa8mvwk+NX7JX7QX7P1zIvxN8HX9jYIxVNWtk+2aZIM8FbqDfEM9lcq/qor+26q1zaW95BJaXcaTQTKUkikUOjq3BDK2QQRwQRg0AfwGkYpK/rr+PH/BMX9l/wCNUVzqGm6L/wAIJ4hm3Mup+HFW3iaU85mssfZpATy21Y3b++K/m3/am/ZK+KH7J/jUeGfHUK3ml32+TR9ctVb7HqEKYzjdzHMgI8yFvmTIILIVdgD5cr9JP+Caf7WFx+zx8aYPCviW8aPwN45lh07U1kc+VZXjMEtb4Douxj5cp6eUxJzsXH5t0o6+lAH9cP7X3wuTTdRg+JujwhIL9lttTVRgLOBiKUgf3wNjHjkL3NfENfaP7C3xbs/2s/2PYdA8W3H2jXdBhbwzrDsQZmktUVrS7xgfO8JjYtzmVG54NfHWoWNzpl/dabeoYriznkt5UPVZImKsPwIrspyurH8beNvCkMtzVY/Dq0K12/KS3+/R+tynRRRWh+KBRRRQB//Ukooor0D/ADLCvpT9lXwqPEXxatrydQ1vocEl82ehkOIov1ct/wABr5rr9Dv2JtDSPQ/EfiORf3lzdxWSk9o7eMOcfVpufoKmex+geF2UxzDiXDU5r3Yvmf8A26rr8Uj8Y/8AgsX8XJPGH7RWm/DG0m32HgLSY0kjDZUajqgW5mOPUQfZ19iDX5Gx969y/aY8czfEr9oL4h+OJXEiat4k1KaAg5At1naOBQfRYkQD2FeG1xJn95t6Ho3wj+GHiX4z/Evw78LvCMYfVfEd/FZQlvuRK3Mkz458uGMNI+P4VNf2RfDfwf8ABL9jf4OaV4K/tbS/DOgaXGTPqWrXMFk1/dsAZrmaSRlDzSkZIBO1dqL8qgD+OP4UfF/x/wDBHxPL40+GeojR9deynsI78QRTzW8VyAJTD5yOscjKCu8DcFYgEZrmfGHjnxn8QdYk8Q+Otc1HxBqcpJe71O6lu5zk5xvlZiB6AYA7CkM/rg1n/gpn+xPol9/Z8/xHgupM7Wey0+/uoVP/AF1jtihHupIr6D+E37SPwM+OkcjfCfxppXiKaFPMltLeYx3saf3ntZVjnVfcoB71/Jf+zT+xH8eP2qYrzU/hzYWtpoeny/Z59Z1eZray+0ABjDGVSSSWQKQWEaMEBG4ruGZvjV+zV+0f+w94z0PxD4jLaTcmczaJ4k0G6aS2a5h5ZUmAjkjlUHJjkRCy5wGXNAH9nNFfEn7A/wC1HL+1T8C7fxVryxReK9DuTpOvxQjZG9zGivHconRUuI2D4HCvvUcKK+26APi39sb9ifwB+1/4e0q117UJvD3iDQZJDp2tWsCXDpDNjzYJomZPNiYgMBvUo4ypALBvX/2cfgP4Y/Zs+EWi/CPwncz31rpXnSzXt0FE13dXMjSzSsq/KoLNhVGdqADJIJPudFABXhPxd/aa+A3wHRB8V/Gml6BcyJ5kdlLIZr50PRltYFknKk8Btm33rxH/AIKA/tRXX7LfwIufEfhxo/8AhLfEFyNH0DzV3pDcSIzy3TKQQwt4lLAMCpkKAggmv5tfgb+yj+0l+2xruueMPDWL8C6J1XxJ4hu3jgkvJBvKGbbLLNNtIYhEbYpXdtBXIB/SH4d/4KVfsVeJbsWVr8SbWzkJwDqNle2UR/7azQLGv/AmFes/Fr4ffBn9sX4L6p4Lm1TTvEOh6pGJLLVdKuIb02N6qnyLqCSNmUSRk9MjcpZG+ViK/k2/aT/ZE+NP7K2q2Fj8UdOt/sWqiT7BqunTfabC4eIAvGJCqMkigglJEUkHK5GSPEfBPxE8d/DbWE8QeAPEGpeHdSTGLrTLqS1kIBzhjGy7l9VbIPpQBe+K3w18SfB74jeIfhj4viEOr+HL6WxuQv3H2HKSIe6SoVkQ91YGvPq9O+LPxe8ffG7xSnjf4l6gura99jt7Ga/8iKCW4jtV2RNN5KIryBMKXI3EKMk4zXmNAH6/f8EcPi3L4T/aD1j4W3Mu2w8d6Q5ijLfKdR0rdPEQDxzbtcD1JxX6KftTeFf+Ec+Ld9ewoFttbhiv0x08zHlSj67k3f8AAq/np/ZZ8cyfDb9oz4ceNUfy49N8Sacbhskf6NNMsM4yOxidgfrX9Sn7bGhh9I8NeI4lG+C6msXPqtwnmKD9DEfzreg/esfknjVlSxfDVSrbWk1JffZ/gz886KKK6T+JgooooA//1ZKKKK9A/wAywr9If2c71/Df7OOveIUASS0GsXoYcc28RIP4bAPwr83q/Qj4Z8fsceLj0P8AY/ibB/7Y3FRUfus/afAiKfEcm+lOX5o/j3lkeaVpZCWdyWYnuTyTRTDSrXEf2WxtFFFAH9Xv7CHxm+E3gP8A4J86V44ju7eCx8B6dqMniKCN1E0eoRTSyurjr5t0zoYs/f8AMUD0r8S/2tf+CiPxQ/at8NjwFrnh/QtD8NQalHqVrDaxzT3ySQrIkYkuZZNpIWRgxSJN3sOK+AYLi7WKSzhkk8qcqZIlY7XKZ2llBwxXJIz0r6l+An7FX7Qn7Q2t21j4P8MXdhpEjqLnXtVhks9MtoyeXMrqDKRj/Vwh3PpjmgD9b/8AgiDpOqw+FPitrcgYabdaho9pDnlGuLeK4eXHuqTR5+or9bf2ivj14Q/Zr+E2sfFnxmktxaaaEit7O3IE97eTtsgt4y3ALscsxyEQMxB24MH7N3wC8Kfs1fCPRvhR4SZ7iHT1ea8vZVCy319Od09y4BO0ucBVydiKqAnbk+V/t5/s863+0v8As6ax4A8KyxJr9ldW+s6THO2yK4urPcPIZiQF86KSRFY/KHKlsAGgD8dtO/4LXfGhfF4vtV8C+G5PDJkw2nQvdLfLDnot40rIZMcbjb7Sf4RX9Bvwi+KfhX41/DbQPil4KleXRvEVot3b+YAssZyUkikAJAkikVo3AJG5Tgkc1/G7pv7Hn7UOreL/APhBbP4X+KBqwm8hlm02aG3Q5wWe6kUW6xj/AJ6GTZjndiv60v2RPghffs7fs8eEPhNq91He6npNvNNqE0JLQ/bL2aS5mSMnBKRtJsU4G4LuwM4AB+Xv/Bb7SNWl8JfCrWo9x0y31LV7WfA+Vbi4it3iyemSsUuPoa+jP+Cbvxc+E/hn9hGx1uTUbWwj8Cpq8/itTIgmgnW4muPMkBYEmaFo/KJ+9wg5BA+1P2lPgD4U/aX+EWsfCjxa7W8V8EuLG+jUPLYX8BzBcIpIDbCSrISN6My5G7I/kx+PH7HH7Rn7OWq32l+MPDl/PohchNb0qOW60m8ijOUcyxg+We4SYI6nt3oA9U/bE/4KFfET9rPR18EajoOk6D4SstVGp2EMKPNqG+JJIo/PuXfaSElO4Rxxgn1A5/PanMrIxVwVI6g8Gm0AFFFFAE9rcSWtxHcxErJE6yKfRlOR+or+x/8AaVvB4l/Z50TxHKA7XL6Rfbu2bmIZI+okP51/G0K/sN+JxMv7HXhF35b+yPDLH3JhgNaUnaaPj/ECClw3jU/+fcvyPz1ooorsP8+wooooA//Wkooor0D/ADLCv0c+AVlJr/7MviHQ1G5rmHXLRB/12jcD/wBDr846/Rz9inVFuvB+v6K7Bns9SE+0kkhbmJR9MExt+INRU+Fn7B4H4lUuJowf2oyS/P8AQ/jjkVkYowwVOCD1BHWmrXuXjj4U67J+0dr/AMFtCgB1Y+MLzw9ZRSZjVpjevbxAk52qTt59DXiUsMtvNJbzqUkjYo6nqrKcEH3BriP7UNHQ72x03WtP1LU7CPVbO0uoZ7ixld447qGNwzws8ZV1WRQVLKQwByCDX9g37OXwR/Yw8afDjQPih8JPhv4UfS9btI7iGWfTob25hfBEkMklwJXE0Mm6NwTkMp7YNfxy1+in7AX7dWsfspeLH8NeKxPqfw3164VtStI8vNp1wQE+3Wq922gCaMY8xACPnVcgH9Xem+B/B2jADR9D02wUdBbWcEIH02IK6faAMDAA9K5nwZ418KfETwxp/jPwRqtrrWiapCs9pe2cgkilRvQjkMDwysAysCGAIIrqKAPyg/4Kwa9+0N4H+GPhL4i/BXxDq2haPoWqyHxG+jytDIvnCMWU07JgtbpIroyt+7LyJuB4x67+yt/wUB+CXxv+F+nat4x8V6N4V8X2NokevaZq15Dp/wDpUSgSXFuZmRZIJSN42EmMNtbBHP3drWj6V4g0q70PXLODUNOv4ZLe6tbqNZoJ4ZQVdJEYFWVlJBBGCK/Iv4if8EafgN4o8Rza34I8Ta34PtLmQyPpcaRahaxEnO2AzbZUT0DvJjsccUAeV+Ef+CrWu6n+2Lc+A9eu/Ddt8HZ9avNHttVw0ZjtovMS2v2vGkKFZpFUtlRGI24xjcfqj9tb/goP8MPgv8LdQsPhV4q0nxH4+1mE2ukR6TdRaglgZR817cNCzxoIVOY0c7pJNvylA5HnF7/wRn/Zrm8Hw6LZ694ot9cidpG1trmCRpNwxsa18lYRGOqhdr56uelWvhN/wR6/Z78CeILfxD461fVfHZtHWSLT7xIrPT3dTkGaKEF5QCB8pkCN0ZWBxQB6f/wS5v8A4567+zg3ir42azqOs/23q9xeeHpdXkknvTpbKg3tLLl2ilmEjRBifk5U7GWv0gZQww3I9KgtLS1sLaKysokgt4EWOKKJQkcaIAqqqqAAoAAAHAFWaAOY1DwV4P1dDHq2haZeqeouLOGUH8HU18h/tJ/A/wDYr8G/DTxB8T/i98NvC66Zo1o880lrYRWF1cSnCxQRS2whkM00hWNMN95uwya+u/GnjXwp8O/DGoeM/G+qWui6JpULT3l7eSCOKKNfUnkknAVQCzMQqgkgH+UD9vz9ufWf2r/FsXh7wv5+m/Djw/O50yzkykuoXAypvrpezFTiKMk+WhOfmZqAPz81i7sb/Vr290yyXTbS4uJZYLNJHlW2idyyRK8hLuI1IUMxLHGScms2irVjZ3Go3tvp9ou+e5lSGJfV5GCqPxJoAihieaVYYxl3IVR6k8D+df2P/tC2Unhb9mzQfDshG61XRrFvc28aqf8A0XX8ovgT4a63/wANC6D8ItUgVtUTxhaeH7uKM7kE8d8ttMA3GVDA8+lf1cftr34i8HaBpikFrnUzPgjnbBDJkj6Fx+daUVeaPhfEvFKhwzjJPrG336fqfnDRRRXYfwKFFFFAH//Xkooor0D/ADLCvpj9lv4jad4E8fSWGuTi107XYFtmndgscdxGxaJnJ6K25lz0BIzx0+Z6UUmr6Hs8P51WynMaWY0Pig7279180feuo/8ABPb4Rax+1fB+1Z/auoR30V7BrJ0SIRCyk1WBAqXJkIMgUsqytGMZlGd20la/mS/a28An4Y/tL/EnwSqeXDY+Ir6S2XGP9Eu5Dc2/r/yxlWv6Cv2ZfH+peH/ifpOj31/ctpeppJYC3kmd4I5ZAGiZUZiqkugUYxw1fn7/AMFmvhQ3hv44+G/ixZRH7J4z0f7NcOoyDf6SQjZPq1vJDjP9w+lclSnys/uTgPjSlxLgHjIQ5GnZq9+iflvc/Gqiiisz7c+pf2av2wfjV+yzrZvvh1qvnaRcyiS/0G/3TaZd44LGMMDFLjgSxMj9ASV4P9DHwA/4Kt/s4fFu3ttM8eXTfDnxFIArwau+7THk4z5V+qiMD/rusJ7c9a/lCooA/vp0fWtH8Q6fFq2g31tqVjcKGhubSZJ4ZFPQq6FlI+hrTr+ELwT8VPiV8Nrz7f8AD3xTrHhuckMW0q+ns9xH94ROqt9CDX1j4a/4KX/tp+GIlt7f4i3GoRL0XU7GyvW/GSW3Mh/76zQB/YZRX8mg/wCCtn7Zwj2f2/o2f7w0W1z/AOg4/SvP/En/AAUw/bU8TxtBcfEWewibOV0yxsrJufR4oBIMezZoA/r41jWtH8PafLq2vX1tptjAN0tzdzJBDGvq0khVVHuTX5pfH/8A4Kt/s2/CaC50vwJdv8RvEMYKpBo77NNjkwcebfspjK/9cFmPbAr+YHxv8U/iT8Srv7d8QfFOs+JJwxYNqt/Nd7Sf7oldgv0AArgiSetAH1T+0v8AthfGn9qfXBffEPUxb6PbStJp+gWG6LTbPOQGEZYmWbBwZZSz8kKVX5a+V9tOooAbtr6I/ZK8BTfEv9pf4a+DIwWjvvEdhJcgDn7LaSC5uD17QxPXzzX7I/8ABGT4UyeJPjh4k+LF3CTaeDdHNpbSFflF/qxMa4PqtvHNkD+8PagD9YND/wCCe/wh8M/tV3/7VR1O8muZ7u41iLRJVjWzttWuFPm3Qk++y7meRIyMJId24gBR5B+058TNO+IfjaK00OYXGl6FG9tFMpzHLM5BmdD0KfKqhhw23I4wam/aa+IOreIviTq+hWWo3SaRpgjsfs0czpBJNGN0rNGCFY7m28g/dr5mAxXVTjy6n8i+K/ia8y9pkWEhaEJWlK/xcr6dlfUWiiitj8FCiiigD//Qkooor0D/ADLCiiigC3Y31zpt7b6hZSGK4tZo54nHVZImDKR9CK+vv29fhpb/ALT/AOxZc+KPDduZ9Y0CCHxXpkarukJtY2+2QDBzk27SjaOrotfG1fd/7IXxPt41uPhZrkuRO0lxpglOVIb5p4OePV1HfL+lZ1I3P2zwO4nhl2bSy+u7QrJJdlJbffdr1sfyIV+1nwx/4JIj4n/swaL8U9H8aTR+OfEmjxa1p+nSQRrpQS4TzIbWSTmUSOhUNMDtRjjYQMnwT9vr9hHxp8CfinfeKPh3od5qnw78S3T3Omy2Fu9wNLnmJL2M4jDFAj58hj8rxkAEsrAfvt+xFB4q+HX7HXw/tfjDA+g6hpOlSJcRXwMU1tZ/aJTaCZW5jYW7R5Q4K9CAQRXGf2NOcIRc5uyR/HZ4g0DWfCuuX/hrxFZy6fqml3MtneWk67ZYLiBikkbjsysCDVKxsbzU7yDT9Phkubq5kSGCGJC8kssjBURFAJLMxAAHJPFf0Hf8FRf2D/F3j/xNB+0F8DdDl1q/vYVg8T6TpyCS6lkhULDfQwrhpmZAI5lQF/lRwDlyPNv+CYf7B3ja3+JC/Hj44+GbzQtP8MfP4f03WLdra4udTOQt01vKA4itV+ZC6rulKspOw0WHdWuer+GP+CMvgfUvgZYxeJPEmpaV8UrmyW7uLqNo5tKtbuRd32VrfYGkijyEaRZAxYFhxhK/CL4t/CXxx8EfH2rfDb4h6e2n61o83lyoeY5UYbo5oX6SQyoQyMOoPIByB/VR8Uv2ntX0T4sW0PhaQT6H4fke2v4AcLfOcCbBxx5X3YzyN4J5U15F/wAFH/2ZtK/ah+Blp8avhpbrfeLfClkb20MA/falpBBkuLQgctJFzLEuCwcPGBl6t02ldny2Q8Y5bm+Lr4LCSvOk7Pz813V9P+HP5aq9I+Enwm8c/G7x/pPw0+HWntqOt6xN5cSZ2xxIAWkmmfnZDEgLOx6AcAnAPnkcMk0qxRKWdyAAASSScAADk5Nf1N/8E7f2WtO/ZO+Ct/8AF/4qWq2HjPxNZi6vhOP3umaUuHhs8cFZZDiSZepcpGeY+ZSb2Ppa9aFGnKrVdopXbfRI8I8T/wDBGbwNp3wMvofDniLU9U+KVrZtdQXTPHDpVzdxpu+yLbFC6RSEbFkaQuGIc8ZSv5476zvNMvZ9O1CF7e6tZHhnhlUpJHLGSroykZDKwIIPQiv65PhX+09q+t/Fm5t/FLeTofiKRLaxhZsrYyKSsIJ6fvc7ZD/f2kfKK/OH/gp7+wb43ufiQfjv8DfDV7r2n+J8v4g0zR7drm5tdUGAbpYIgZGiuhguUVtsoZmxvFOUGtz53hfi3AZ9QnXwMrqLad9/J+j3R+I2g6FrPijW7Dw34ds5tQ1TVLmKzs7SBd8s9xOwSONFHVmYgCv2V+J3/BJL/hV37MWt/FPV/Gk0vjjw5o8ut3+nRwRtpWy3XzJrWOTPmmRE3BZs7XcY8sA5HtX/AAS7/YQ8X+AvE8v7Qfxx0KXRr6yhaHwxpOpRhLqKSVSs19NC2WhZUJjhVwH+ZnKj5Cf0T/bct/FfxF/Y4+INr8HYH17UNW0uNYIrEGSW5s/tERuxCq8uxt1kAUZLDIAJIBmx9I6sFNU29X06n8awOa/rL/YI+GNv+y/+xha+J/EsH2fV/ENvN4r1ONhtkH2qMCzgOTnItxENp6SMwr8Z/wBgb9hLxr8dfilYeKPiLoN3pfw88N3S3OpS6hbyW41OaAhlsYFkCmQOwHnsOEjyMhmUV+3n7XvxQtphb/CzRJFKwtHc6p5fCrt5hg44HaQjsAnrV043Z8nxzxLSyPJ62Nk/es1Fd5Pb/N+R8M3l9daleT6hfOZbi6leeZz1aSRizMfckk1Xoorrbuf5+Vajqyc5bvUKKKKokKKKKAP/0ZKKKK9A/wAywooooAKs2l3cWFzFe2cr29xbussU0TFJI5EOVZWHIIPSq1FA4ylGSnB2aPunwX+2fPZ6ZDY+ONGlvrqJdpvLFkTzcdC8TlQrHuVbbnoB0ryf40ftH638VLBNA0+y/sjRSweeBpPNmuWU5USlQqhAcHYM5IySeBXzZtp1RyI+6x3iVxFjMB/Z1fEN02rPRXa7N2v/AJ9T6i+Gf7Vfi/wLpkOhazZR+ILG2XZA00xhuY0H3U8za4dV7bhkDjOMY3fH/wC2B4q8S6TNo3hjTV0AXCmOS6+0Ge4CHr5ZCoI2I43fMR1GDgj5Aop8kdzKj4jcSU8D/Z6xUvZ2t0vbtzWv+I8ksxZjknkk8kk9TmvrD9m/4923w8lk8I+LpGGg3cpkguMbhZSv97cBz5TnkkZ2Nk9CSPkyim7NWPH4d4ixuS46OYYKXvrvs11T8mffWmfs/wD7BXhv4kS/HzTNN8Nw6/LO1/HOb/zLOK7Y7jcQWRmNuk275gUiGG+ZQG5ryP8AaE+Pr/E65/4Rrw35kHhu0k3FmG176VD8shB5WJeqKcEn5mHAA+YaKzUbH3XF3jHm2dYP6goqnB/Fy3vLyu9l5fiFfX3gL9r7xX4Y0mHR/EumJ4gFuoSO6M5guCg4HmEo6yMBxuwpPU5OTXyDRWis9z4bIOJ8zyWs6+W1XCT36p+qd0z6m+Jf7U/jDx5pU2h6PZp4f0+6UpcGKYzXMqEYKeZtQIp/iwuSOMgZzmfBj9o7W/hdZPoGpWZ1jRAS0EIk8uW1ZjlhEzZUoeuw4AbkEcg/NlFPlj2PS/1/4g/tFZo8S3VWifS3bl2t5WPunxp+2dcXumy2HgbRpbG5lQr9sv3RmhzwSkSFwzD+Hc2M9Q3Svh27urq+upr6+mkuLi4dpZZZW3O8jklmZjySScmoKKSilscnEXGGbZ5NTzKq5W2WiS+SCiiimfMhRRRQAUUUUAf/0pKKKK9A/wAywooooAKKKKACiiigAooooAKKKKACiiigAooooAKKKKACiiigAooooAKKKKACiiigD//Tkooor0D/ADLCiiigAooooAKKKKACiiigAooooAKKKKACiiigAooooAKKKKACiiigAooooAKKKKAP/9k=;" parent="kooUzmV5k-GNHN8CiD2J-50" vertex="1">
          <mxGeometry x="39.75" y="280" width="80.5" height="80.5" as="geometry" />
        </mxCell>
        <mxCell id="nnLEG21wNNKofwJg_tyF-3" style="edgeStyle=orthogonalEdgeStyle;rounded=0;orthogonalLoop=1;jettySize=auto;html=1;targetPerimeterSpacing=0;sourcePerimeterSpacing=0;" parent="1" source="kooUzmV5k-GNHN8CiD2J-57" target="kooUzmV5k-GNHN8CiD2J-50" edge="1">
          <mxGeometry relative="1" as="geometry">
            <Array as="points">
              <mxPoint x="1020" y="780" />
              <mxPoint x="1020" y="780" />
            </Array>
          </mxGeometry>
        </mxCell>
        <mxCell id="kooUzmV5k-GNHN8CiD2J-57" value="LLMs" style="swimlane;" parent="1" vertex="1">
          <mxGeometry x="1080" y="650" width="280" height="400" as="geometry" />
        </mxCell>
        <mxCell id="kooUzmV5k-GNHN8CiD2J-52" value="Llama 3 7B" style="shape=image;verticalLabelPosition=bottom;labelBackgroundColor=default;verticalAlign=top;aspect=fixed;imageAspect=0;image=https://1000logos.net/wp-content/uploads/2021/10/logo-Meta.png;" parent="kooUzmV5k-GNHN8CiD2J-57" vertex="1">
          <mxGeometry x="26.670000000000073" y="50" width="106.66" height="60" as="geometry" />
        </mxCell>
        <mxCell id="kooUzmV5k-GNHN8CiD2J-53" value="Phi-3-mini 3.8B" style="shape=image;verticalLabelPosition=bottom;labelBackgroundColor=default;verticalAlign=top;aspect=fixed;imageAspect=0;image=https://upload.wikimedia.org/wikipedia/commons/thumb/4/44/Microsoft_logo.svg/2048px-Microsoft_logo.svg.png;" parent="kooUzmV5k-GNHN8CiD2J-57" vertex="1">
          <mxGeometry x="40" y="160" width="80" height="80" as="geometry" />
        </mxCell>
        <mxCell id="kooUzmV5k-GNHN8CiD2J-54" value="Mistral 7B" style="shape=image;verticalLabelPosition=bottom;labelBackgroundColor=default;verticalAlign=top;aspect=fixed;imageAspect=0;image=https://seeklogo.com/images/M/mistral-ai-icon-logo-B3319DCA6B-seeklogo.com.png;" parent="kooUzmV5k-GNHN8CiD2J-57" vertex="1">
          <mxGeometry x="41.54" y="290" width="76.92" height="70" as="geometry" />
        </mxCell>
        <mxCell id="VBUAaF2JNmheHbToEvTF-5" value="Qwen 2 7B" style="shape=image;verticalLabelPosition=bottom;labelBackgroundColor=default;verticalAlign=top;aspect=fixed;imageAspect=0;image=https://logos-world.net/wp-content/uploads/2022/05/Alibaba-Symbol.png;" parent="kooUzmV5k-GNHN8CiD2J-57" vertex="1">
          <mxGeometry x="148.8" y="170.94" width="103.33" height="58.12" as="geometry" />
        </mxCell>
        <mxCell id="VBUAaF2JNmheHbToEvTF-4" value="Gemma 2 9B" style="shape=image;verticalLabelPosition=bottom;labelBackgroundColor=default;verticalAlign=top;aspect=fixed;imageAspect=0;image=https://upload.wikimedia.org/wikipedia/commons/thumb/c/c1/Google_%22G%22_logo.svg/480px-Google_%22G%22_logo.svg.png;" parent="kooUzmV5k-GNHN8CiD2J-57" vertex="1">
          <mxGeometry x="159.93" y="280" width="80" height="80" as="geometry" />
        </mxCell>
        <mxCell id="w6uwNzEU7bL1x4UOTtyp-2" value="gpt-4o-mini" style="shape=image;verticalLabelPosition=bottom;labelBackgroundColor=default;verticalAlign=top;aspect=fixed;imageAspect=0;image=https://static-00.iconduck.com/assets.00/openai-icon-2021x2048-4rpe5x7n.png;" parent="kooUzmV5k-GNHN8CiD2J-57" vertex="1">
          <mxGeometry x="161" y="50" width="78.93" height="80" as="geometry" />
        </mxCell>
        <mxCell id="nnLEG21wNNKofwJg_tyF-9" style="edgeStyle=orthogonalEdgeStyle;rounded=0;orthogonalLoop=1;jettySize=auto;html=1;targetPerimeterSpacing=0;sourcePerimeterSpacing=0;" parent="1" source="nnLEG21wNNKofwJg_tyF-1" target="nnLEG21wNNKofwJg_tyF-2" edge="1">
          <mxGeometry relative="1" as="geometry" />
        </mxCell>
        <mxCell id="nnLEG21wNNKofwJg_tyF-1" value="Synthetic&lt;div&gt;Test Data&lt;/div&gt;" style="shape=cylinder3;whiteSpace=wrap;html=1;boundedLbl=1;backgroundOutline=1;size=15;fillColor=#ffe6cc;strokeColor=#d79b00;" parent="1" vertex="1">
          <mxGeometry x="260" y="620" width="80" height="80" as="geometry" />
        </mxCell>
        <mxCell id="nnLEG21wNNKofwJg_tyF-5" style="edgeStyle=orthogonalEdgeStyle;rounded=0;orthogonalLoop=1;jettySize=auto;html=1;targetPerimeterSpacing=0;sourcePerimeterSpacing=0;" parent="1" source="nnLEG21wNNKofwJg_tyF-2" target="nnLEG21wNNKofwJg_tyF-4" edge="1">
          <mxGeometry relative="1" as="geometry">
            <Array as="points">
              <mxPoint x="720" y="660" />
            </Array>
          </mxGeometry>
        </mxCell>
        <mxCell id="nnLEG21wNNKofwJg_tyF-2" value="nlp-synt-data&lt;div&gt;(Data Generator)&lt;/div&gt;" style="whiteSpace=wrap;html=1;" parent="1" vertex="1">
          <mxGeometry x="440" y="630" width="120" height="60" as="geometry" />
        </mxCell>
        <mxCell id="nnLEG21wNNKofwJg_tyF-12" style="edgeStyle=orthogonalEdgeStyle;rounded=0;orthogonalLoop=1;jettySize=auto;html=1;targetPerimeterSpacing=0;sourcePerimeterSpacing=0;" parent="1" source="nnLEG21wNNKofwJg_tyF-4" target="nnLEG21wNNKofwJg_tyF-11" edge="1">
          <mxGeometry relative="1" as="geometry" />
        </mxCell>
        <mxCell id="nnLEG21wNNKofwJg_tyF-4" value="nlp-synt-data&lt;div&gt;(Response Generator)&lt;/div&gt;" style="whiteSpace=wrap;html=1;verticalAlign=top;" parent="1" vertex="1">
          <mxGeometry x="640" y="750" width="120" height="210" as="geometry" />
        </mxCell>
        <mxCell id="nnLEG21wNNKofwJg_tyF-11" value="Evaluation" style="whiteSpace=wrap;html=1;fillColor=#e1d5e7;strokeColor=#9673a6;" parent="1" vertex="1">
          <mxGeometry x="640" y="990" width="120" height="60" as="geometry" />
        </mxCell>
        <mxCell id="Mvh4aQKfTHbiU97Dxfyn-3" value="" style="group" vertex="1" connectable="0" parent="1">
          <mxGeometry x="230" y="850" width="140" height="100" as="geometry" />
        </mxCell>
        <mxCell id="VBUAaF2JNmheHbToEvTF-6" value="Promprs&lt;div&gt;&amp;lt; prompt, label &amp;gt;&lt;/div&gt;" style="shape=document;whiteSpace=wrap;html=1;boundedLbl=1;" parent="Mvh4aQKfTHbiU97Dxfyn-3" vertex="1">
          <mxGeometry width="120" height="80" as="geometry" />
        </mxCell>
        <mxCell id="Mvh4aQKfTHbiU97Dxfyn-1" value="Promprs&lt;div&gt;&amp;lt; prompt, label &amp;gt;&lt;/div&gt;" style="shape=document;whiteSpace=wrap;html=1;boundedLbl=1;" vertex="1" parent="Mvh4aQKfTHbiU97Dxfyn-3">
          <mxGeometry x="10" y="10" width="120" height="80" as="geometry" />
        </mxCell>
        <mxCell id="Mvh4aQKfTHbiU97Dxfyn-2" value="Promprs&lt;div&gt;&amp;lt; prompt, label &amp;gt;&lt;/div&gt;" style="shape=document;whiteSpace=wrap;html=1;boundedLbl=1;" vertex="1" parent="Mvh4aQKfTHbiU97Dxfyn-3">
          <mxGeometry x="20" y="20" width="120" height="80" as="geometry" />
        </mxCell>
        <mxCell id="Mvh4aQKfTHbiU97Dxfyn-5" value="tokenizer (chat template)" style="whiteSpace=wrap;html=1;" vertex="1" parent="1">
          <mxGeometry x="650" y="810" width="100" height="40" as="geometry" />
        </mxCell>
        <mxCell id="Mvh4aQKfTHbiU97Dxfyn-6" value="model generation function" style="whiteSpace=wrap;html=1;" vertex="1" parent="1">
          <mxGeometry x="650" y="860" width="100" height="40" as="geometry" />
        </mxCell>
        <mxCell id="Mvh4aQKfTHbiU97Dxfyn-7" value="decode output" style="whiteSpace=wrap;html=1;" vertex="1" parent="1">
          <mxGeometry x="650" y="910" width="100" height="40" as="geometry" />
        </mxCell>
      </root>
    </mxGraphModel>
  </diagram>
</mxfile>
